<?xml version="1.0" encoding="UTF-8"?>
<svg id="_レイヤー_2" data-name="レイヤー 2" xmlns="http://www.w3.org/2000/svg" viewBox="0 0 350.7 350.7">
  <defs>
    <style>
      .cls-1 {
        fill: #281e1e;
      }

      .cls-2 {
        fill: #932525;
      }

      .cls-3 {
        fill: #0f0c0c;
      }
    </style>
  </defs>
  <g id="_レイヤー_1-2" data-name="レイヤー 1">
    <g>
      <g>
        <path class="cls-3" d="M175.35,0C78.51,0,0,78.51,0,175.35s78.51,175.35,175.35,175.35,175.35-78.51,175.35-175.35S272.19,0,175.35,0ZM175.35,184.6c-5.11,0-9.25-4.14-9.25-9.25s4.14-9.25,9.25-9.25,9.25,4.14,9.25,9.25-4.14,9.25-9.25,9.25Z"/>
        <path class="cls-1" d="M175.35,8.35C83.12,8.35,8.35,83.12,8.35,175.35s74.77,167,167,167,167-74.77,167-167S267.58,8.35,175.35,8.35ZM175.35,184.6c-5.11,0-9.25-4.14-9.25-9.25s4.14-9.25,9.25-9.25,9.25,4.14,9.25,9.25-4.14,9.25-9.25,9.25Z"/>
        <path class="cls-3" d="M175.35,86.55c-49.04,0-88.8,39.76-88.8,88.8s39.76,88.8,88.8,88.8,88.8-39.76,88.8-88.8-39.76-88.8-88.8-88.8ZM175.35,184.6c-5.11,0-9.25-4.14-9.25-9.25s4.14-9.25,9.25-9.25,9.25,4.14,9.25,9.25-4.14,9.25-9.25,9.25Z"/>
        <path class="cls-2" d="M175.35,101.35c-40.87,0-74,33.13-74,74s33.13,74,74,74,74-33.13,74-74-33.13-74-74-74ZM175.35,184.6c-5.11,0-9.25-4.14-9.25-9.25s4.14-9.25,9.25-9.25,9.25,4.14,9.25,9.25-4.14,9.25-9.25,9.25Z"/>
      </g>
      <path class="cls-3" d="M175.35,16.71c42.37,0,82.21,16.5,112.18,46.46,29.96,29.96,46.46,69.8,46.46,112.18s-16.5,82.21-46.46,112.18c-29.96,29.96-69.8,46.46-112.18,46.46s-82.21-16.5-112.18-46.46c-29.96-29.96-46.46-69.8-46.46-112.18s16.5-82.21,46.46-112.18c29.96-29.96,69.8-46.46,112.18-46.46M175.35,15.51C87.07,15.51,15.51,87.07,15.51,175.35s71.56,159.84,159.84,159.84,159.84-71.56,159.84-159.84S263.63,15.51,175.35,15.51h0Z"/>
      <path class="cls-3" d="M175.35,56.37c31.78,0,61.66,12.38,84.13,34.85,22.47,22.47,34.85,52.35,34.85,84.13s-12.38,61.66-34.85,84.13c-22.47,22.47-52.35,34.85-84.13,34.85s-61.66-12.38-84.13-34.85-34.85-52.35-34.85-84.13,12.38-61.66,34.85-84.13c22.47-22.47,52.35-34.85,84.13-34.85M175.35,55.47c-66.21,0-119.88,53.67-119.88,119.88s53.67,119.88,119.88,119.88,119.88-53.67,119.88-119.88-53.67-119.88-119.88-119.88h0Z"/>
    </g>
  </g>
</svg>