<svg width="120" height="88" viewBox="0 0 120 88" fill="none" xmlns="http://www.w3.org/2000/svg">
<rect width="120" height="87.5977" fill="white"/>
<g clip-path="url(#clip0_240_657)">
<path d="M74.6384 2.49377C51.8786 2.49377 33.4331 20.9393 33.4331 43.6991C33.4331 66.4589 51.8786 84.9044 74.6384 84.9044C97.3982 84.9044 115.844 66.4589 115.844 43.6991C115.844 20.9393 97.3899 2.49377 74.6384 2.49377ZM74.6384 60.399C65.4198 60.399 57.9385 52.926 57.9385 43.6991C57.9385 34.4722 65.4115 26.9992 74.6384 26.9992C83.8653 26.9992 91.3383 34.4722 91.3383 43.6991C91.3383 52.926 83.8653 60.399 74.6384 60.399Z" fill="#333333"/>
<path d="M74.6384 26.9992C65.4198 26.9992 57.9385 34.4722 57.9385 43.6991C57.9385 52.926 65.4115 60.399 74.6384 60.399C83.8653 60.399 91.3383 52.926 91.3383 43.6991C91.3383 34.4722 83.8653 26.9992 74.6384 26.9992ZM74.6384 45.7357C73.5162 45.7357 72.6018 44.8213 72.6018 43.6991C72.6018 42.5769 73.5162 41.6625 74.6384 41.6625C75.7606 41.6625 76.675 42.5769 76.675 43.6991C76.675 44.8213 75.7606 45.7357 74.6384 45.7357Z" fill="#C1272D"/>
<path d="M4.51372 27.0241C6.45885 27.0241 6.69992 26.6916 6.69992 25.345V10.9892C6.69992 9.45969 6.45885 9.25187 4.51372 9.25187V8.26268H13.8155C18.3375 8.26268 21.0889 9.57606 21.0889 12.8096C21.0889 15.2369 19.5345 16.7332 16.6916 17.3317V17.3649C20.133 17.9634 21.9285 19.7008 21.9285 22.7182C21.9285 26.4256 19.1189 28.0133 14.148 28.0133H4.51372V27.0241ZM12.7348 16.916C15.3117 16.916 16.6584 15.5694 16.6584 13.084C16.6584 10.5985 15.3699 9.4015 12.7681 9.4015C11.4547 9.4015 11.2386 9.60931 11.2386 10.5985V16.9077H12.7348V16.916ZM17.1654 22.7515C17.1654 19.7922 15.5777 18.0798 12.793 18.0798H11.2386V24.9293C11.2386 26.3924 11.7456 26.8745 13.3333 26.8745C15.877 26.8745 17.1654 25.4697 17.1654 22.7431V22.7515Z" fill="#333333"/>
<path d="M36.8246 27.3816C35.8354 28.0133 34.6966 28.3375 33.2336 28.3375C31.6459 28.3375 30.7814 27.739 30.5071 26.8745C29.4929 27.6808 28.1712 28.3375 26.2843 28.3375C23.6825 28.3375 22.153 27.2652 22.153 25.1621C22.153 22.4356 25.3865 20.5569 30.4073 19.6259V17.3816C30.3741 15.7357 29.9002 14.8379 28.1629 14.8379C27.207 14.8379 26.4256 15.1704 26.4256 15.6193C26.4256 16.1845 27.1737 16.3342 27.1737 17.3234C27.1737 18.3126 26.3924 19.2103 25.1122 19.2103C23.8321 19.2103 23.0507 18.3126 23.0507 17.3566C23.0507 15.6525 24.9377 13.6492 29.6924 13.6492C33.1006 13.6492 34.6301 15.1122 34.6301 18.4372V25.0208C34.6301 26.517 34.8961 26.8163 35.4697 26.8163C35.9518 26.8163 36.2178 26.6334 36.4838 26.517L36.8163 27.3816H36.8246ZM28.2959 26.5503C29.0773 26.5503 29.8254 26.1347 30.4239 25.6858V20.8728C27.6143 21.621 26.384 22.7265 26.384 24.4971C26.384 25.9601 27.0158 26.5586 28.2959 26.5586V26.5503Z" fill="#333333"/>
<path d="M49.5179 16.251C49.5179 17.4813 48.8612 18.5536 47.3649 18.5536C46.1679 18.5536 45.3865 17.8969 45.3865 16.7581C45.3865 15.8604 45.8936 15.6775 45.8936 15.4447C45.8936 15.3283 45.7772 15.2037 45.5611 15.2037C44.547 15.2037 43.1671 17.7806 43.1671 19.9003H43.1338V25.5278C43.1338 26.783 43.4331 27.0241 45.4364 27.0241V28.0133H36.9659V27.0241C38.67 27.0241 38.8778 26.783 38.8778 25.5278V16.6667C38.8778 15.7689 38.7282 15.5278 38.0133 15.5278H37.0241V14.5387L41.7207 13.7905H43.0091V16.542H43.1006C43.7323 15.2286 44.8628 13.6409 46.8412 13.6409C48.5453 13.6409 49.5012 14.7465 49.5012 16.2427L49.5179 16.251Z" fill="#333333"/>
<path d="M24.7714 50.9809V51.9701H15.7938V50.9809H17.1987C18.005 50.9809 18.1546 50.4988 17.9135 49.7257L16.2095 44.9709H10.0416L8.33749 49.8171C8.09643 50.6234 8.2793 50.9809 9.11887 50.9809H10.3741V51.9701H4.15628V50.9809C5.80216 50.9809 6.25104 50.7149 6.79135 49.335L13.3749 32.2195H16.2178L22.4439 49.4846C22.951 50.798 23.192 50.9809 24.7797 50.9809H24.7714ZM15.8271 43.857L13.1671 36.4672H13.0756L10.4406 43.857H15.8271Z" fill="#333333"/>
<path d="M51.463 50.9809V51.9701H43.8321V50.9809C45.212 50.9809 45.4198 50.798 45.4198 49.6342V42.4522C45.4198 40.2993 44.5802 39.4015 43.1421 39.4015C41.9119 39.4015 41.1056 40.1496 40.5653 41.3466V49.4846C40.5653 50.7149 40.7481 50.9809 42.1779 50.9809V51.9701H34.7548V50.9809C36.1347 50.9809 36.3092 50.798 36.3092 49.6342V42.4522C36.3092 40.266 35.5278 39.4015 34.0981 39.4015C33.1089 39.4015 32.3608 39.8171 31.463 40.8063V49.5428C31.463 50.8313 31.7623 50.9809 33.1089 50.9809V51.9701H25.2951V50.9809C26.9992 50.9809 27.207 50.7398 27.207 49.4846V40.6234C27.207 39.7257 27.0574 39.4846 26.3425 39.4846H25.3533V38.4954L30.0499 37.7473H31.3383V39.6592H31.3965C32.5353 38.5204 34.0565 37.5644 36.2095 37.5644C38.3624 37.5644 39.7672 38.6118 40.3076 39.9252C41.2968 38.3957 42.9426 37.5644 45.1205 37.5644C47.9052 37.5644 49.6426 38.9692 49.6426 42.261V49.468C49.6426 50.7232 49.8504 50.9643 51.4381 50.9643L51.463 50.9809Z" fill="#333333"/>
<path d="M66.2178 44.5802C66.2178 49.7257 63.4663 52.3275 58.9443 52.3275C56.9992 52.3275 55.6858 51.7623 54.3392 51.0723L53.4996 51.9701H52.0366V34.256C52.0366 33.2668 51.887 33.059 51.0224 33.059H50.1829V32.0449L54.9709 31.33H56.2843V39.0773H56.3175C57.3317 38.2128 58.6201 37.581 60.4738 37.581C64.0648 37.581 66.2178 39.9418 66.2178 44.5802ZM61.7623 45.1455C61.7623 41.4048 60.8313 39.2519 58.7116 39.2519C57.7224 39.2519 56.9493 39.9418 56.2843 40.5985V50.1164C56.941 50.7731 57.7224 51.2552 58.6783 51.2552C60.8063 51.2552 61.7623 49.5511 61.7623 45.1538V45.1455Z" fill="#333333"/>
<path d="M80.5819 45.054H71.6376C71.7539 48.7614 72.685 50.4406 75.2286 50.4406C77.2652 50.4406 78.5204 49.3599 79.2685 47.6559L80.2826 48.1962C79.4763 50.0831 78.1297 52.2943 73.9069 52.2943C69.4763 52.2943 67.1737 49.8421 67.1737 44.9626C67.1737 40.0831 69.5677 37.5727 73.9983 37.5727C78.4289 37.5727 80.5819 40.2993 80.5819 44.7797V45.0457V45.054ZM76.1264 43.9817C76.1264 40.3574 75.7689 38.6534 73.9734 38.6534C72.4771 38.6534 71.6708 39.8504 71.6376 43.9817H76.1264Z" fill="#333333"/>
<path d="M93.1504 40.2078C93.1504 41.4381 92.4938 42.5104 90.9975 42.5104C89.8005 42.5104 89.0191 41.8537 89.0191 40.7149C89.0191 39.8171 89.5262 39.6342 89.5262 39.4015C89.5262 39.2851 89.4098 39.1604 89.1937 39.1604C88.1795 39.1604 86.7997 41.7373 86.7997 43.857H86.7664V49.4846C86.7664 50.7398 87.0657 50.9809 89.069 50.9809V51.9701H80.5985V50.9809C82.3026 50.9809 82.5104 50.7398 82.5104 49.4846V40.6234C82.5104 39.7257 82.3608 39.4846 81.6459 39.4846H80.6567V38.4954L85.3533 37.7473H86.6417V40.4988H86.7332C87.3649 39.1854 88.4954 37.5977 90.4738 37.5977C92.1779 37.5977 93.1338 38.7032 93.1338 40.1995L93.1504 40.2078Z" fill="#333333"/>
<path d="M8.03824 61.3383H7.98005V74.8628C7.98005 75.9684 8.33749 76.4173 9.47631 76.4173H10.5237V77.4065H4.53865V76.4173H5.32003C6.27598 76.4173 6.72485 75.9352 6.72485 74.8628V60.3491C6.72485 58.8861 6.51704 58.67 4.51372 58.6451V57.6559H11.064L20.3408 71.9867H20.4323V60.0748C20.4323 59.1189 19.9252 58.6367 18.9027 58.6367H17.8554V57.6475H23.7822V58.6367H23.0673C22.1363 58.6367 21.6874 59.1189 21.6874 60.0748V77.606H18.6949L8.04655 61.33L8.03824 61.3383Z" fill="#333333"/>
<path d="M22.527 70.4073C22.527 65.3782 24.9543 62.9842 30.0083 62.9842C35.0623 62.9842 37.34 65.32 37.34 70.3408C37.34 75.3616 34.9792 77.7307 29.9501 77.7307C24.921 77.7307 22.527 75.3948 22.527 70.399V70.4073ZM32.8761 70.3491C32.8429 66.01 32.0116 64.0648 29.9169 64.0648C27.8221 64.0648 26.9825 66.251 26.9825 70.4406C26.9825 74.6301 27.7889 76.6916 29.9751 76.6916C32.1613 76.6916 32.9343 74.6883 32.8761 70.3491Z" fill="#333333"/>
<path d="M39.9086 73.3666V64.4223H38.113V63.4331C40.4738 63.0175 42.4522 60.6816 43.1671 58.0466H44.1563V63.3416H47.0906V64.4223H44.1563V73.192C44.1563 75.0457 44.6052 75.9767 45.8354 75.9767C46.5503 75.9767 47.2402 75.5611 47.5145 75.4115L48.0216 76.251C47.2402 76.7914 46.1097 77.7805 43.8653 77.7805C41.3549 77.7805 39.9169 76.5503 39.9169 73.3832L39.9086 73.3666Z" fill="#333333"/>
<path d="M61.8121 70.4988H52.8678C52.9842 74.2062 53.9152 75.8853 56.4588 75.8853C58.4954 75.8853 59.7506 74.8047 60.4988 73.1006L61.5129 73.6409C60.7066 75.5278 59.3599 77.739 55.1372 77.739C50.7066 77.739 48.404 75.2868 48.404 70.4073C48.404 65.5278 50.798 63.0175 55.2286 63.0175C59.6592 63.0175 61.8121 65.744 61.8121 70.2328V70.4988ZM57.3566 69.4181C57.3566 65.7939 56.9992 64.0898 55.2037 64.0898C53.7074 64.0898 52.9011 65.2868 52.8678 69.4181H57.3566Z" fill="#333333"/>
<mask id="mask0_240_657" style="mask-type:luminance" maskUnits="userSpaceOnUse" x="33" y="2" width="83" height="84">
<path d="M74.6384 85.1039C97.3955 85.1039 115.844 66.6557 115.844 43.8986C115.844 21.1415 97.3955 2.69327 74.6384 2.69327C51.8813 2.69327 33.4331 21.1415 33.4331 43.8986C33.4331 66.6557 51.8813 85.1039 74.6384 85.1039Z" fill="white"/>
</mask>
<g mask="url(#mask0_240_657)">
<path d="M36.8163 27.4231C35.8271 28.0549 34.6883 28.379 33.2253 28.379C31.6376 28.379 30.7731 27.7805 30.4988 26.916C29.4846 27.7224 28.1629 28.379 26.276 28.379C23.6741 28.379 22.1446 27.3067 22.1446 25.2037C22.1446 22.4771 25.3782 20.5985 30.399 19.6675V17.4231C30.3658 15.7772 29.8919 14.8795 28.1546 14.8795C27.1987 14.8795 26.4173 15.212 26.4173 15.6608C26.4173 16.2261 27.1654 16.3757 27.1654 17.3649C27.1654 18.3541 26.384 19.2519 25.1039 19.2519C23.8238 19.2519 23.0424 18.3541 23.0424 17.3982C23.0424 15.6941 24.9293 13.6908 29.6841 13.6908C33.0923 13.6908 34.6218 15.1538 34.6218 18.4788V25.0623C34.6218 26.5586 34.8878 26.8579 35.4613 26.8579C35.9435 26.8579 36.2095 26.675 36.4755 26.5586L36.808 27.4231H36.8163ZM28.2876 26.5835C29.069 26.5835 29.8171 26.1679 30.4156 25.719V20.9061C27.606 21.6542 26.3757 22.7598 26.3757 24.5303C26.3757 25.9933 27.0075 26.5919 28.2876 26.5919V26.5835Z" fill="white"/>
<path d="M49.5012 16.2926C49.5012 17.5229 48.8446 18.5952 47.3483 18.5952C46.1513 18.5952 45.3699 17.9385 45.3699 16.7997C45.3699 15.9019 45.877 15.719 45.877 15.4863C45.877 15.3699 45.7606 15.2452 45.5445 15.2452C44.5303 15.2452 43.1505 17.8221 43.1505 19.9418H43.1172V25.5694C43.1172 26.8246 43.4165 27.0657 45.4198 27.0657V28.0549H36.9493V27.0657C38.6534 27.0657 38.8612 26.8246 38.8612 25.5694V16.7082C38.8612 15.8105 38.7116 15.5694 37.9967 15.5694H37.0075V14.5802L41.7041 13.8321H42.9925V16.5835H43.084C43.7157 15.2702 44.8462 13.6825 46.8246 13.6825C48.5287 13.6825 49.4846 14.788 49.4846 16.2843L49.5012 16.2926Z" fill="white"/>
<path d="M51.4464 51.0141V52.0033H43.8155V51.0141C45.1953 51.0141 45.4032 50.8313 45.4032 49.6675V42.4854C45.4032 40.3325 44.5636 39.4347 43.1255 39.4347C41.8953 39.4347 41.0889 40.1829 40.5486 41.3799V49.5179C40.5486 50.7481 40.7315 51.0141 42.1613 51.0141V52.0033H34.7382V51.0141C36.118 51.0141 36.2926 50.8313 36.2926 49.6675V42.4854C36.2926 40.2992 35.5112 39.4347 34.0815 39.4347C33.0923 39.4347 32.3441 39.8504 31.4464 40.8396V49.5761C31.4464 50.8645 31.7456 51.0141 33.0923 51.0141V52.0033H25.2785V51.0141C26.9825 51.0141 27.1904 50.7731 27.1904 49.5179V40.6567C27.1904 39.7589 27.0407 39.5179 26.3259 39.5179H25.3367V38.5287L30.0332 37.7805H31.3217V39.6924H31.3799C32.5187 38.5536 34.0399 37.5977 36.1929 37.5977C38.3458 37.5977 39.7506 38.645 40.2909 39.9584C41.2801 38.4289 42.926 37.5977 45.1039 37.5977C47.8886 37.5977 49.6259 39.0025 49.6259 42.2943V49.5012C49.6259 50.7564 49.8337 50.9975 51.4214 50.9975L51.4464 51.0141Z" fill="white"/>
<path d="M66.2012 44.6135C66.2012 49.7589 63.4497 52.3608 58.9277 52.3608C56.9825 52.3608 55.6692 51.7955 54.3225 51.1056L53.483 52.0033H52.02V34.2893C52.02 33.3001 51.8703 33.0923 51.0058 33.0923H50.1662V32.0781L54.9543 31.3633H56.2677V39.1106H56.3009C57.315 38.2461 58.6035 37.6143 60.4572 37.6143C64.0482 37.6143 66.2012 39.9751 66.2012 44.6135ZM61.7456 45.1787C61.7456 41.4381 60.8146 39.2851 58.6949 39.2851C57.7057 39.2851 56.9327 39.9751 56.2677 40.6318V50.1496C56.9244 50.8063 57.7057 51.2884 58.6617 51.2884C60.7897 51.2884 61.7456 49.5844 61.7456 45.187V45.1787Z" fill="white"/>
<path d="M80.5652 45.0956H71.6209C71.7373 48.803 72.6683 50.4821 75.212 50.4821C77.2485 50.4821 78.5037 49.4015 79.2519 47.6974L80.266 48.2377C79.4597 50.1247 78.113 52.3358 73.8903 52.3358C69.4597 52.3358 67.1571 49.8836 67.1571 45.0042C67.1571 40.1247 69.5511 37.6143 73.9817 37.6143C78.4123 37.6143 80.5652 40.3408 80.5652 44.8213V45.0873V45.0956ZM76.1097 44.015C76.1097 40.3907 75.7523 38.6866 73.9568 38.6866C72.4605 38.6866 71.6542 39.8836 71.6209 44.015H76.1097Z" fill="white"/>
<path d="M93.1338 40.2494C93.1338 41.4796 92.4771 42.552 90.9809 42.552C89.7839 42.552 89.0025 41.8953 89.0025 40.7564C89.0025 39.8587 89.5096 39.6758 89.5096 39.4431C89.5096 39.3267 89.3932 39.202 89.1771 39.202C88.1629 39.202 86.783 41.7789 86.783 43.8986H86.7498V49.5262C86.7498 50.7814 87.049 51.0224 89.0524 51.0224V52.0116H80.5819V51.0224C82.286 51.0224 82.4938 50.7814 82.4938 49.5262V40.665C82.4938 39.7672 82.3441 39.5262 81.6293 39.5262H80.6401V38.537L85.3367 37.7889H86.6251V40.5403H86.7165C87.3483 39.2269 88.4788 37.6392 90.4572 37.6392C92.1613 37.6392 93.1172 38.7448 93.1172 40.2411L93.1338 40.2494Z" fill="white"/>
<path d="M22.5104 70.4406C22.5104 65.4115 24.9377 63.0175 29.9917 63.0175C35.0457 63.0175 37.3234 65.3533 37.3234 70.3741C37.3234 75.3948 34.9626 77.7639 29.9335 77.7639C24.9044 77.7639 22.5104 75.4281 22.5104 70.4323V70.4406ZM32.8595 70.3824C32.8263 66.0432 31.995 64.0981 29.9002 64.0981C27.8055 64.0981 26.9659 66.2843 26.9659 70.4738C26.9659 74.6633 27.7722 76.7249 29.9584 76.7249C32.1446 76.7249 32.9177 74.7215 32.8595 70.3824Z" fill="white"/>
<path d="M39.9002 73.4081V64.4638H38.1047V63.4746C40.4655 63.059 42.4439 60.7232 43.1588 58.0881H44.148V63.3832H47.0823V64.4638H44.148V73.2336C44.148 75.0873 44.5968 76.0183 45.8271 76.0183C46.542 76.0183 47.2319 75.6027 47.5062 75.453L48.0133 76.2926C47.2319 76.8329 46.1014 77.8221 43.857 77.8221C41.3466 77.8221 39.9086 76.5919 39.9086 73.4248L39.9002 73.4081Z" fill="white"/>
<path d="M61.8038 70.532H52.8595C52.9759 74.2394 53.9069 75.9185 56.4505 75.9185C58.4871 75.9185 59.7423 74.8379 60.4904 73.1338L61.5046 73.6741C60.6982 75.5611 59.3516 77.7722 55.1288 77.7722C50.6983 77.7722 48.3957 75.32 48.3957 70.4406C48.3957 65.5611 50.7897 63.0507 55.2203 63.0507C59.6509 63.0507 61.8038 65.7772 61.8038 70.266V70.532ZM57.34 69.4597C57.34 65.8354 56.9825 64.1313 55.187 64.1313C53.6908 64.1313 52.8845 65.3283 52.8512 69.4597H57.34Z" fill="white"/>
</g>
</g>
<defs>
<clipPath id="clip0_240_657">
<rect width="111.687" height="82.6101" fill="white" transform="translate(4.15628 2.49377)"/>
</clipPath>
</defs>
</svg>
