<?xml version="1.0" encoding="UTF-8"?><svg id="_レイヤー_2" xmlns="http://www.w3.org/2000/svg" viewBox="0 0 108.42 108.42"><defs><style>.cls-1{fill:#fff;}</style></defs><g id="_レイヤー_1-2"><polygon class="cls-1" points="81.52 25.55 38.07 35.02 38.07 41.21 81.52 31.75 81.52 25.55"/><path class="cls-1" d="M99.57,0H8.85C3.96,0,0,3.96,0,8.85v90.72c0,4.89,3.96,8.85,8.85,8.85h90.72c4.89,0,8.85-3.96,8.85-8.85V8.85c0-4.89-3.96-8.85-8.85-8.85ZM84.96,72.27c0,8.95-7.57,14.63-15.75,14.63-3.96,0-8-2.15-8-6.37,0-6.11,7.83-11.87,14.88-11.87,1.98,0,4.13.43,5.42,1.12v-29.43l-43.45,9.46v33.47c0,8.95-7.57,14.63-15.75,14.63-3.96,0-8-2.15-8-6.37,0-6.11,7.83-11.87,14.88-11.87,1.98,0,4.13.43,5.42,1.12V27.19l50.33-11.01v56.1Z"/></g></svg>