<svg width="586" height="158" viewBox="0 0 586 158" fill="none" xmlns="http://www.w3.org/2000/svg">
<path d="M64.9068 5.94853C64.0322 6.44684 63.2717 7.22544 62.5873 8.06633L63.9562 7.91061C64.9828 7.78603 67.5684 7.6926 69.1274 7.63031C69.2795 7.63031 69.5457 7.56803 69.7358 7.56803C70.9526 7.56803 72.6636 8.06633 74.0325 8.12862C75.9337 8.19091 75.8196 8.40892 77.7969 8.68921C80.0403 9.12523 82.2837 10.371 82.9681 12.4265C82.9681 12.6445 83.0441 12.9248 83.0441 13.2051C83.0441 14.3263 82.7019 15.8212 81.257 16.9424C80.2304 17.5653 78.6714 19.1225 77.3025 20.0568C75.5154 20.8977 73.9564 21.9566 72.6636 22.5795C71.2948 23.0778 69.6597 23.9187 68.6331 24.417C67.5304 24.5727 66.4657 25.1333 65.0208 25.6939C64.0702 26.1922 61.4086 27.2511 59.5074 27.874C57.6822 28.31 55.2107 29.3378 55.2107 29.3378C55.2107 29.3378 56.4274 29.4001 56.9217 29.5558C57.264 29.6181 58.4807 30.3344 59.3172 30.5524C60.2678 30.7704 61.3705 31.2687 62.8535 32.2965C64.2223 33.2931 65.249 34.9126 65.249 36.4386C65.249 38.899 65.0589 39.335 64.3744 40.1759C63.4999 41.4528 62.8154 41.9511 62.3972 42.9166C62.131 43.9755 57.8343 45.9376 56.8837 46.9965C55.4388 47.8997 52.7391 48.834 51.4843 49.5192C50.1915 50.2978 48.4804 50.8584 47.3397 51.201C46.3891 51.419 44.6781 51.6993 43.8035 52.2599C43.043 52.7582 39.2406 53.4433 37.8718 54.0351C36.5029 54.7514 33.0427 55.4366 32.0161 55.9349C30.9134 56.0906 30.0389 55.9349 28.8221 56.5577C27.7194 57.5544 23.7649 58.1772 20.0386 58.7378C19.7724 58.9558 19.4302 59.2361 19.2781 59.5164C18.5176 60.5131 16.6925 61.6342 15.5898 62.4751C14.2209 63.1915 13.3464 64.3126 12.0536 64.9978C11.103 65.5584 6.65418 66.9599 3.80239 66.9599C1.14072 66.9599 1.48293 65.9633 0.950597 65.7764C0.418263 65.5896 0 64.9978 0 64.4995C0 64.0635 0.950597 62.3817 4.98113 61.1982C8.93561 60.0148 12.2057 59.0181 13.2323 59.0181C13.7646 59.0181 16.1601 58.3953 18.1374 57.7412C19.2401 56.7446 20.0386 56.184 20.3047 55.4989C20.723 54.658 21.3314 54.0351 21.9398 53.2565C22.4721 52.2599 22.8904 51.2944 23.6508 50.5781C24.6775 50.0175 24.2592 49.2389 25.438 47.7751C26.8068 46.3113 27.4913 44.5361 28.4419 43.1969C29.0502 41.92 30.4191 40.6742 31.4457 38.9613C32.8146 37.3418 32.8907 36.2829 34.0314 34.9437C35.4763 33.6045 35.5903 33.7602 35.6664 32.9816C35.6664 32.2653 38.7463 28.4657 39.6969 27.22C40.6475 25.8185 41.408 24.8842 42.0924 24.2613C42.8529 23.3581 43.8035 23.2024 44.1457 22.3615C44.4879 21.8009 45.2484 21.0223 46.123 19.9634C47.1496 18.8422 49.4691 15.7278 50.6098 14.8246C51.7125 13.828 53.1954 10.7447 54.5643 10.5267C54.9065 10.4644 55.2487 10.1841 55.5909 9.90384C54.8304 9.96612 54.222 9.96612 53.9559 9.96612C53.0813 9.96612 51.1041 10.4021 50.1535 10.5267C49.0508 10.7447 47.834 10.7447 46.2751 10.7447C44.3739 10.7447 41.7882 11.1807 40.2673 11.3676C38.7083 11.5856 34.8679 12.4888 33.3089 12.7691C31.7499 12.8314 28.67 13.61 28.2517 14.1083C27.9095 14.4509 25.3999 15.1049 23.955 15.4475C23.879 15.4475 23.7649 15.5098 23.6889 15.5098C22.32 15.7278 17.8332 17.6899 16.1221 18.4062C14.7533 19.0291 12.5099 20.4617 11.217 21.2092C10.1144 21.9878 9.2398 22.9844 8.70747 24.1056C7.83292 25.1022 7.14849 25.9431 6.99639 26.8462C6.80627 27.6871 6.99639 28.746 6.46406 29.3689C6.27394 29.8049 6.19789 30.2098 6.19789 30.5524C6.19789 30.8327 6.27394 31.1753 6.27394 31.4556C6.27394 32.2342 6.95837 33.2308 7.14849 34.7569C7.56675 36.3141 9.81016 38.7122 11.4452 38.7122C13.8407 38.7122 15.6658 38.2139 16.6164 37.809C17.7191 37.3107 20.1527 35.4109 21.1793 34.4143C22.1299 33.5111 22.7383 32.7948 23.5748 32.1719C23.917 31.8916 23.9931 31.6736 23.9931 31.4556C23.9931 31.0196 23.9931 30.8327 24.2592 30.459C25.0197 29.4624 25.6281 28.9018 26.5787 27.656C27.2631 26.3168 27.8715 24.9153 28.1377 23.7007C28.2137 23.2647 28.3278 22.8598 28.3278 22.5172C28.3278 22.0189 28.2517 21.5206 28.2517 21.178C28.2517 20.742 29.6966 20.1191 30.229 20.1191C30.8374 20.1191 30.9895 21.6763 30.9895 21.8632C30.9134 22.7664 30.3811 24.1056 29.7727 25.3825C28.8221 26.8774 28.2137 27.1577 27.2631 28.6837C26.5787 30.1475 24.3353 32.8259 24.0691 33.4177C23.7269 34.0405 22.244 34.3208 21.9018 35.3174C21.3694 36.3141 19.9245 37.155 19.3922 37.8401C18.7838 38.5564 16.8826 39.8956 14.8293 40.5185C13.6125 41.0168 12.2437 41.1414 11.0269 41.1414C10.2664 41.1414 9.58202 41.1414 8.97363 40.9857C7.26256 40.4874 6.92035 40.3628 5.70358 39.3662C4.33472 38.3073 4.60089 38.5253 3.38412 37.9024C2.09131 37.2795 1.33084 34.788 0.798501 32.9816C0.722454 32.6391 0.722454 32.2653 0.722454 31.8604C0.722454 30.1787 1.14072 27.8429 1.82515 26.5037C2.85179 24.8842 5.43741 22.7664 7.22454 21.3649C9.20178 19.9634 9.54399 19.8077 10.5706 19.2471C11.3311 18.7488 12.3958 18.8111 13.1563 18.1882C13.7646 17.6276 19.6203 15.4475 22.1679 14.7312C24.7155 14.0149 27.3392 13.1117 28.708 12.8937C30.3431 12.6757 30.4191 12.0528 32.6625 11.4922C34.7158 10.9316 37.9859 10.589 39.5448 10.371C41.2559 10.2464 45.0583 9.24981 48.4804 9.09409C50.5337 8.87608 53.5376 8.65807 56.8077 8.37777L57.4161 7.81718C58.1765 6.97629 59.8116 5.8551 60.496 5.01421C61.1804 4.2356 62.055 3.7373 63.5759 2.95869C64.4505 2.3981 65.6292 1.68178 66.3136 1.61949C66.922 1.55721 66.9981 1.27691 68.9753 0.560594C70.3442 0.0622883 71.4849 0 73.196 0C74.2226 0 75.5915 0.280297 75.5915 0.498306C75.5915 0.716315 74.1466 1.49492 73.6903 1.49492C73.4241 1.49492 72.9298 0.996612 71.9792 0.996612C70.8765 0.996612 69.2415 1.55721 67.9487 2.77183C67.5304 3.27013 65.9714 4.82734 64.6026 5.8551L64.9068 5.94853ZM16.8446 59.2673C15.7419 59.4853 14.6772 59.7033 14.1069 59.8902C13.0802 60.1082 11.9395 60.3262 9.96225 60.7934C7.6428 61.4162 8.13711 61.79 6.34999 62.2571C4.2967 62.8177 3.42215 63.3783 3.07993 64.1569C3.00389 64.3126 3.00389 64.3749 3.00389 64.4372C3.00389 64.9355 3.68832 65.0601 4.56286 65.0601C5.32334 65.0601 7.14849 65.0601 8.36525 64.6241C10.0003 64.1881 9.92423 64.4061 11.9775 63.2226C14.1449 62.1014 15.5898 60.8245 16.8826 59.205L16.8446 59.2673ZM61.6367 9.24981L61.2945 9.68583C59.5834 11.0873 56.2373 14.3263 54.6783 16.9424C54.07 17.721 52.7771 19.1848 52.0167 19.5585C51.4083 19.9011 51.8265 20.8977 50.99 21.7386C50.1155 22.6418 50.0394 22.7975 48.8227 23.7007C47.72 24.7596 47.1876 25.6005 46.237 26.7217C45.4766 27.8429 45.9709 27.3445 44.1837 29.8984C42.2826 32.5768 40.8376 34.9749 39.6969 35.9403C38.5942 36.9369 38.252 37.4975 37.7957 38.463C37.2634 39.5219 36.2368 40.3628 35.4763 41.266C34.5257 42.1069 34.1074 43.7264 32.7386 44.941C31.5218 46.2179 30.3431 48.1177 29.1263 48.9586C28.3658 49.5815 28.0996 50.4535 27.3011 51.9173C26.4266 53.3188 24.9817 54.0351 24.2212 55.3743L23.3467 56.3709C24.4494 56.1529 25.7422 55.9349 27.3772 55.53C30.7993 54.5334 33.5751 53.3499 34.2595 53.2876C34.9439 53.2253 36.7691 52.727 38.1379 51.9484C39.2406 51.4501 42.1685 51.1698 42.5107 50.4846C43.1951 50.0486 47.5679 48.0243 49.0508 47.6817C50.0774 47.1834 51.7125 45.9376 52.4729 45.3459C53.2334 44.723 54.3741 43.5706 55.743 42.8855C56.6936 42.1069 58.2526 40.3628 58.3286 39.7088C58.7469 38.7122 59.5454 37.4664 59.5454 36.0338C59.5454 34.9749 58.5948 33.5111 57.9864 32.5768C57.4541 31.5179 54.2981 30.5213 52.7391 30.5213C51.4463 30.5213 48.9748 31.3621 47.4918 31.3621C46.0089 31.3621 45.7807 30.8638 45.7807 30.3655C45.7807 29.8672 47.6819 28.8083 48.6325 28.8083C49.393 28.8083 52.8532 28.746 52.7771 28.746C52.7771 28.6837 56.1993 27.8429 58.1765 26.8462C59.8116 25.7873 61.4466 25.4448 62.3211 25.289C62.8535 25.1645 63.6139 24.5104 64.7166 23.6695C66.0094 22.9532 67.9867 21.832 69.0894 21.4272C70.3822 20.9289 71.0666 20.0257 71.8271 19.3717C73.4621 18.2505 74.6789 16.9736 75.4394 15.9769C75.8576 15.8212 77.4166 13.5788 77.4166 12.5822C77.4166 11.1807 76.39 11.3053 76.1998 10.6824C75.7816 9.96612 72.9298 9.28095 71.8271 9.28095C71.0666 9.28095 68.8232 9.15638 67.7966 9.06294C67.1882 9.00066 66.3517 9.00065 63.8421 9.00065C63.5759 9.00065 62.7394 9.06294 61.5987 9.21866L61.6367 9.24981Z" fill="white"/>
<path d="M81.6753 45.595C81.4091 45.595 81.143 45.595 80.9909 45.5328C80.2304 45.1902 79.7741 44.8164 79.7741 43.851C79.7741 43.0101 80.6486 41.3283 80.6486 41.2349C80.3064 41.2349 78.4052 42.5741 77.7208 43.0101C77.1885 43.3527 76.0097 43.851 75.3253 44.3493L73.6142 45.5328C72.8537 45.9688 72.5876 45.7508 72.1693 46.1556C72.0172 46.4982 70.7244 46.9342 69.6597 47.4325C69.0514 47.5883 68.3669 47.8686 67.7585 47.8686C67.4163 47.8686 66.9981 47.744 66.7319 47.526C66.1235 47.0277 65.7813 46.6851 65.7813 46.0311C65.7813 45.9065 65.8574 45.7508 65.8574 45.595C66.1996 44.4738 66.5418 44.3181 67.4924 42.6986C68.5951 40.9234 70.2301 39.5842 71.2948 38.3385C72.2454 37.2796 72.5876 37.2796 73.1199 36.8747C73.7283 36.719 74.0705 36.0961 75.1732 34.9749C76.7322 33.8537 79.3178 32.1719 80.0783 31.7359C80.6867 31.2999 81.295 30.9573 81.7133 30.9573C82.1316 30.895 82.1316 30.3967 83.7666 29.6181C85.3256 28.9018 86.6944 29.0575 87.1127 28.9018C87.531 28.6215 88.0633 28.3412 89.0899 28.3412C89.6223 28.3412 90.5349 28.4658 90.725 28.5592C91.1432 28.9952 91.1432 29.4001 91.1432 29.6804C90.9911 30.1164 90.725 30.3967 90.2687 31.0819C89.5843 31.9228 88.6337 32.4211 88.6337 32.7637C88.6337 33.044 88.9759 33.1997 89.5843 33.1997C89.7364 33.1374 89.9265 33.1374 90.1166 33.1374C90.4588 33.1374 90.725 33.2931 90.801 33.698C90.801 33.9783 90.6109 34.4766 90.1926 34.8815C89.4322 35.3798 89.3181 35.7846 88.8998 36.2829C88.2914 36.7812 88.1393 37.4664 87.4549 37.9024C86.6944 38.3385 86.6944 38.681 86.6944 38.8991C86.6184 39.3974 86.1621 39.8957 85.8199 40.4563C85.2876 40.9546 84.2609 42.3561 84.2609 42.6986C84.1849 42.9166 84.1088 43.1347 84.1088 43.2592C84.1088 43.3838 84.1849 43.4772 84.451 43.4772C85.2115 43.4772 85.7438 43.3215 86.2382 43.0412C86.7705 42.6986 88.0633 42.3249 88.2914 42.0446C88.5576 41.8266 89.3181 41.4217 89.8504 41.3283C90.2687 41.1726 90.8771 40.4874 91.7516 39.9891C92.7022 39.5531 93.7289 38.8056 94.4893 38.4319C95.0977 37.9336 95.592 37.6533 96.2004 37.6533C96.3525 37.6533 96.4666 37.809 96.4666 37.9336C96.4666 38.0582 96.2765 38.2762 96.0483 38.5565C95.4399 38.8991 94.9456 38.9925 94.0711 39.6777C93.3106 40.394 92.1699 40.9546 91.4094 41.3594C90.9911 41.702 89.7744 42.2003 89.0899 42.6363C88.3295 42.9789 87.7211 43.1969 87.531 43.633C87.1127 43.9755 84.7932 44.4739 84.1849 44.9099C83.5004 45.2525 82.4738 45.5328 81.6753 45.5328V45.595ZM84.9453 33.8226C85.7058 33.48 86.7325 33.044 86.9226 32.7014C87.1127 32.3588 88.0253 31.7982 88.2914 31.4245C88.5576 31.1442 88.8238 30.4278 88.8238 29.8673C88.7477 29.805 88.6337 29.805 88.4055 29.805C87.8732 29.805 87.1127 29.9607 86.6184 30.241C85.6678 30.677 84.375 31.7982 83.8807 32.0162C83.4624 32.1719 83.3483 32.4522 82.1696 33.2931C80.8007 34.0717 80.1924 35.0683 79.1657 35.4732C78.2151 36.0961 78.2912 36.3764 77.2645 37.3107C76.39 38.027 75.5534 38.9302 74.9451 39.6465C74.3367 40.3628 73.7283 41.048 72.7777 42.0446C71.4849 43.0412 70.9906 43.5395 70.7244 44.3804C70.7244 44.941 70.8005 45.0033 71.3328 45.0033C71.8651 45.0033 73.6523 44.3804 73.6523 44.3804C74.0705 44.3804 74.0705 44.1624 75.0972 43.3838C76.39 42.7609 77.0744 42.2003 78.1771 41.702C79.1277 41.1414 80.3445 40.0202 80.6867 39.6465C81.0289 39.4285 81.295 39.4285 81.7133 38.5876C82.1316 37.7467 81.8654 37.6844 82.9301 36.9058C83.6145 36.3452 84.2229 36.1272 84.2229 35.7846C84.2229 35.4421 84.413 34.4454 84.9834 33.8848L84.9453 33.8226Z" fill="white"/>
<path d="M107.988 43.6952C107.988 43.6952 106.619 44.4115 106.429 44.5361C105.897 44.7541 105.668 44.9721 105.326 45.0967C105.06 45.5327 104.109 45.9999 103.767 46.0933C103.235 46.1556 102.664 46.8719 101.258 47.3702C100.231 47.9308 99.6986 48.1488 97.7214 48.1488C96.4286 48.1488 95.3259 46.5293 95.3259 45.6262C95.3259 44.723 96.3525 43.7887 96.9609 42.9478C97.6453 41.8889 99.8887 40.1448 100.231 39.7088C100.497 39.2728 100.991 38.7122 101.258 38.5876C101.6 38.3073 102.626 37.2484 103.653 36.5321C104.528 35.9092 104.87 35.6912 105.63 35.4732C106.239 34.9749 106.239 34.8503 107.075 34.352C107.76 33.916 108.52 33.4488 108.52 33.0751C108.102 32.9194 106.809 32.2965 106.353 31.8916C105.744 31.549 105.82 31.4556 105.06 31.4556C104.452 31.4556 103.957 32.1719 103.349 32.7325C103.007 33.0751 102.132 33.4488 101.714 33.8537C101.296 34.4143 101.029 34.6946 100.611 34.9749C100.345 35.4109 100.003 35.4109 99.7366 35.6912C99.4705 35.9715 98.0256 36.8747 96.8849 37.7467C95.8582 38.3696 94.9837 39.0236 94.9076 38.9302C94.7175 38.8679 94.4893 38.5876 94.4893 38.4942C94.4893 38.2139 94.9076 38.0581 96.3145 37.373C97.6073 36.3764 97.6073 36.0961 97.7594 36.0961C98.0256 36.0338 98.4438 35.7535 98.5199 35.4732C98.5959 35.3486 99.1283 34.9749 99.5465 34.6946C100.231 33.916 101.79 32.8571 102.893 31.5179C102.969 31.0819 103.919 30.3344 103.919 29.7427C103.729 29.4001 103.235 28.4658 103.235 27.7806C103.235 27.656 103.311 27.5003 103.311 27.438C103.387 26.7217 103.919 25.3825 104.528 25.1956C104.87 24.9153 105.136 24.5727 105.82 24.0744C106.695 23.5138 107.265 23.5138 107.722 23.2958C108.14 22.9532 108.938 22.7352 109.889 22.7352C110.764 22.7352 111.448 23.1712 111.448 24.0744C111.448 24.7907 111.258 24.635 111.03 25.071C110.688 25.4136 110.764 25.9742 110.003 26.7528C109.471 27.2511 109.471 27.5937 108.976 28.2166C108.558 28.9329 108.368 28.6526 107.95 29.3378C107.95 29.4935 107.874 29.6181 107.874 29.7738C107.874 30.2098 108.14 30.5524 108.634 30.9573C109.509 31.3933 109.509 31.7982 110.269 32.0162C110.688 32.2342 111.144 32.4522 111.144 33.1374C111.144 33.698 109.927 34.7569 109.319 35.1929C108.558 35.7535 108.368 36.1895 107.95 36.4698C107.417 36.7501 107.189 37.2484 106.847 37.591C106.429 38.0893 106.239 38.1516 105.744 38.3696C105.212 38.7122 104.185 39.9891 103.843 40.2694C103.425 40.5497 102.741 41.8889 101.942 42.4495C101.258 43.2281 100.915 43.7887 100.573 44.287C100.497 44.5673 100.231 45.0656 100.231 45.5639C100.231 45.9065 100.573 46.1245 100.991 46.1245C101.41 46.1245 102.018 45.6262 102.893 45.4082C103.653 44.9721 104.185 44.8476 104.794 44.3493C105.326 43.851 106.239 43.5084 106.619 43.2281C107.227 42.9478 108.444 42.3872 108.596 42.1069C108.786 41.8889 109.699 41.484 110.231 41.3906C110.84 40.8923 111.334 40.612 111.942 40.612C112.132 40.612 112.208 40.7677 112.208 40.8923C112.208 41.0168 112.056 41.2348 111.79 41.5151C111.182 41.8577 110.764 42.0134 109.813 42.6363L107.988 43.6952Z" fill="white"/>
<path d="M134.566 119.064C135.023 118.69 136.924 117.756 137.494 117.632C138.521 117.382 140.118 116.199 141.905 115.358C143.502 114.517 145.289 113.334 146.734 112.493C147.913 111.776 149.51 110.686 150.232 110.686C150.537 110.686 150.689 110.936 150.689 111.06C150.689 111.309 150.384 111.652 149.814 112.15C148.787 112.866 147.761 113.365 146.316 114.424C144.719 115.638 141.791 116.697 140.878 117.538C140.156 118.13 137.646 119.095 136.354 119.936C134.871 120.902 133.996 120.902 131.677 122.085C129.471 123.175 124.338 125.2 122.437 125.916C116.429 128.314 114.072 128.781 110.992 128.781C106.467 128.781 103.653 126.258 102.779 125.168C101.752 124.078 101.448 122.054 101.448 120.715C101.448 117.725 103.805 113.645 105.706 111.247C106.885 109.69 109.661 106.077 111.562 103.928C113.615 101.904 114.034 100.689 115.821 98.4156C116.847 97.1075 117.874 95.7683 119.053 94.4603C116.429 94.7094 113.767 95.052 113.197 95.3012C112.17 95.7683 110.117 95.7683 106.885 96.0175C104.414 96.2666 100.155 96.8584 97.227 97.1075C95.1738 99.0385 95.478 98.6647 91.9417 100.938C88.1393 103.336 86.2382 103.928 82.854 107.043C79.4699 110.032 76.8463 112.68 75.0972 113.053C73.3481 113.302 72.7397 114.486 71.8651 115.701C70.9906 116.791 70.5343 117.507 68.0627 119.313C65.5912 121.369 65.4391 121.836 63.3858 122.926C61.0283 124.141 56.6556 128.937 55.1726 129.404C53.5756 130.712 51.9406 131.678 50.6478 132.892C48.7466 134.325 41.7122 137.938 39.3547 140.46C36.8832 142.858 34.2215 144.291 30.9895 146.222C26.7308 148.869 17.3769 152.108 12.0916 152.108C3.61227 152.108 0.0760498 146.471 0.0760498 142.516C0.0760498 135.789 3.15598 133.515 4.03053 131.242C4.75299 128.968 5.36137 127.753 6.65418 126.912C7.68082 126.196 8.40328 125.231 9.16376 123.798C9.16376 123.673 9.31585 123.549 9.31585 123.424C10.0383 121.743 12.0916 120.31 12.814 119.22C13.5365 118.13 16.1982 115.856 17.2248 114.548C18.2515 113.116 25.1338 105.921 27.3392 105.174C28.67 104.707 29.6966 103.149 30.9895 101.81C32.3203 100.596 35.4002 98.945 38.0239 96.5158C40.7996 93.8685 42.5487 92.8096 44.4879 91.4704C46.9595 89.9132 49.9253 87.9823 51.6744 87.5151C54.184 86.9234 56.3514 85.2416 57.6822 84.7433C59.4313 84.027 60.3059 83.0615 62.6633 82.4698C65.1729 81.7535 67.1882 80.3208 69.6978 80.3208C73.0819 80.3208 75.4013 82.1272 75.4013 83.4353C75.4013 84.7433 74.6789 87.7643 73.5001 89.3215C72.1693 91.0033 71.599 91.4704 70.5723 93.1522C69.6978 94.7094 70.116 94.7094 68.3669 96.0175C67.6445 96.6092 67.3403 97.1075 67.1882 97.5747C68.3669 97.3255 69.5457 97.1075 70.8385 96.983C77.7208 96.2666 79.2037 96.1421 81.5232 96.0175C85.7819 96.0175 89.8884 95.5503 93.8429 95.052C95.7441 93.6194 97.6453 92.2802 99.1282 91.3459C103.387 88.574 104.984 87.0168 107.76 84.9925C110.231 83.3107 112.589 80.4454 113.767 79.9471C115.364 79.3554 116.391 77.7982 118.596 76.1164C120.498 74.8083 122.095 73.5937 125.175 71.071C127.684 69.0467 131.639 65.9011 133.958 65.0602C136.43 63.9702 138.217 61.6967 139.396 60.6066C140.574 59.5166 144.681 56.5267 146.886 55.8104C149.244 54.8449 149.662 53.6615 151.867 53.0386C153.921 52.5714 153.198 52.4468 155.366 52.4468C156.848 52.4468 157.989 53.8795 158.445 53.8795C158.75 53.8795 160.347 52.3223 162.096 52.3223C163.997 52.3223 164.567 53.2877 164.567 54.004C164.567 54.4712 160.461 55.8104 157.989 59.0494C155.518 62.413 153.578 65.5274 152.438 66.1191C151.107 66.8354 150.689 67.9255 149.662 69.4827C148.787 70.7907 143.654 76.9261 141.905 79.0751C140.004 81.0995 138.103 83.9959 136.62 85.1793C135.593 86.4874 135.289 86.2694 132.361 90.1001L131.487 91.3147C134.567 90.941 137.19 90.1001 138.977 89.5084C140.726 88.9166 141.753 88.0757 144.415 86.8611C146.468 86.0202 147.343 85.6465 148.217 85.6465C149.244 85.6465 149.814 86.1137 149.814 86.7365C149.814 87.4529 149.092 88.4183 147.038 89.6018C143.54 91.7507 138.673 92.3736 134.719 93.0899C132.969 93.4637 131.22 93.6817 129.585 93.8063C127.684 96.2044 126.087 97.8861 125.327 98.727C124.3 99.8171 123.73 101.592 121.676 103.274C120.079 104.582 119.927 105.423 118.901 107.105C117.722 109.129 115.25 111.434 113.045 114.548C110.992 117.538 110.421 118.379 110.421 120.185C110.421 120.653 110.573 121.151 110.573 121.743C110.878 124.39 113.653 125.106 115.25 125.106C118.634 125.106 125.365 123.3 126.81 122.459C127.988 121.867 133.996 119.594 134.566 118.971V119.064ZM90.9151 97.3255C86.3902 97.4501 80.4965 97.7927 75.6675 98.291C73.31 98.5402 68.3289 99.2565 64.2223 99.9728L61.5987 102.62C60.2678 103.835 60.8762 104.551 58.1005 106.326C55.0205 108.257 55.6289 108.849 53.6897 109.191C53.2334 109.316 52.9673 109.316 52.511 109.316C50.6098 109.316 49.0128 108.351 49.0128 107.292C49.0128 105.236 52.2448 102.246 53.9939 101.655C55.0206 101.281 57.7963 100.097 61.4466 99.0073C62.4732 97.6993 63.8041 96.0175 65.0969 94.8029C67.3023 92.5293 69.2035 89.5395 69.5076 88.4495C69.9639 87.2348 69.9639 85.3351 70.5343 83.9959C70.6864 83.7467 70.8385 83.5287 70.8385 83.2795C70.8385 82.8124 70.2681 82.3141 69.3555 82.3141C69.2035 82.3141 69.0514 82.4386 68.7852 82.4386C67.1882 82.6878 59.1271 85.6776 57.2259 86.8923C55.1726 88.1069 52.3969 90.3804 50.4957 91.0967C48.7466 91.813 45.2104 94.8029 42.7388 96.983C39.9631 99.2565 39.6589 99.9728 38.9365 100.222C38.3661 100.596 35.5523 103.71 33.8032 104.894C31.902 105.859 28.9742 110.655 26.7688 112.586C24.5634 114.517 22.8143 117.85 21.4835 118.472C19.7344 119.189 19.7344 120.279 17.9853 122.085C15.932 124.016 14.1829 125.916 13.3084 128.096C13.1563 128.563 13.0042 128.937 13.0042 129.311C13.0042 129.684 13.1563 130.027 13.1563 130.401C13.1563 130.868 12.8521 131.491 11.9775 132.923C10.0763 135.789 10.6467 136.629 9.77214 140.367C9.62004 141.083 9.62004 141.675 9.62004 142.173C9.62004 143.73 10.3425 143.979 11.103 146.128C11.5593 147.686 13.4605 148.184 15.5137 148.184C17.1107 148.184 18.8979 148.059 20.0386 147.717C21.9398 147.25 25.1718 144.945 27.7955 143.886C30.4191 142.796 31.7499 142.796 33.0808 140.896C34.1074 139.214 36.4649 138.965 37.9098 138.249C39.2406 137.657 42.3206 135.01 44.0697 133.702C45.5526 132.612 50.5337 129.497 53.7277 126.975C56.9598 124.11 60.0397 121.587 60.458 121.338C61.3325 121.089 62.8154 119.282 63.9562 118.223C65.1349 117.133 68.2148 115.451 70.116 113.676C71.713 111.994 74.3747 110.063 76.1238 108.631C78.1771 106.825 81.5612 104.084 84.0328 102.62C85.7819 101.405 88.2914 99.3811 90.9151 97.4501V97.3255ZM120.802 92.2802C123.311 89.2904 125.783 86.2694 128.14 83.6533C130.346 81.006 132.665 78.3588 133.578 77.549C134.909 76.241 136.506 75.1509 136.962 74.0609C137.532 72.8463 140.46 71.289 140.916 69.5138C141.487 67.7075 141.943 66.8666 143.122 65.4339C144.605 63.6276 145.023 63.285 146.354 61.7278C146.924 61.0115 147.228 60.7623 147.228 60.5132C147.228 60.264 147.076 59.7969 146.772 59.7969C146.316 59.7969 143.844 61.6032 140.194 63.7522C135.669 66.3994 132.133 69.5138 129.928 70.2301C128.331 70.8219 128.026 71.9119 125.973 73.4691C124.224 74.9018 121.448 77.4244 119.661 78.0162C119.357 78.1408 112.323 84.1204 111.448 84.7433C108.672 86.6743 109.547 87.0168 105.896 89.5395C102.246 92.0622 102.246 92.3113 100.611 93.6194L99.4324 94.5849C100.611 94.5849 101.904 94.4603 103.083 94.4603C105.554 94.4603 108.938 94.0866 111.144 93.4948C113.045 93.0277 113.501 93.1211 116.695 92.7785L120.802 92.3113V92.2802Z" fill="white"/>
<path d="M162.666 108.849C165.29 107.759 165.176 107.541 167.647 106.202C168.826 105.485 170.271 104.769 171.906 103.928C174.53 102.62 175.708 102.495 178.37 101.156C180.88 99.9416 186.431 98.2909 188.789 98.2909C190.69 98.2909 193.199 100.315 193.199 102.246C193.199 104.395 190.69 106.202 189.093 107.292C187.61 108.257 187.762 109.098 186.621 110.063C185.442 110.904 184.872 111.496 183.541 112.337C182.515 113.178 181.184 114.86 180.918 115.576C182.667 115.576 184.72 114.361 186.203 113.645C188.408 112.555 191.184 111.496 192.211 111.496C193.085 111.496 193.808 110.281 195.443 109.814C196.774 109.347 199.245 108.849 200.272 108.382C201.869 107.79 206.584 106.108 208.333 106.108C210.234 106.108 210.69 107.914 210.69 108.88C210.69 109.845 209.359 110.437 207.306 111.745C206.127 112.462 205.405 113.552 204.378 114.61C203.047 115.825 203.352 116.043 201.869 117.476C200.12 118.784 198.941 119.998 198.941 121.306C198.941 122.272 199.815 122.988 201.869 122.988C203.352 122.988 207.724 121.057 208.181 120.839C209.359 120.248 211.413 119.749 211.983 119.158C212.287 118.784 213.58 118.067 214.341 117.943C215.215 117.694 216.242 116.51 217.725 115.669C219.208 114.953 221.109 113.863 222.25 113.022C223.276 112.306 224.455 111.714 225.329 111.714C225.634 111.714 225.786 111.839 225.786 112.088C225.786 112.337 225.482 112.804 224.759 113.302C223.885 113.894 223.162 114.019 221.831 115.233C220.5 116.448 218.447 117.382 217.421 118.099C216.546 118.69 214.341 119.531 212.896 120.248C211.869 120.839 210.994 121.213 210.424 121.929C209.968 122.521 205.595 123.736 203.238 124.795C201.032 125.635 196.355 125.76 194.454 125.76C192.553 125.76 189.321 123.736 189.321 122.147C189.321 120.839 191.526 118.784 192.553 118.067C193.732 117.351 193.427 117.102 194.15 116.137C195.024 114.922 194.872 115.296 196.203 114.081C196.926 113.365 198.979 112.15 198.979 111.216C198.979 111.091 198.827 110.967 198.523 110.967C197.952 110.967 196.926 111.216 195.443 112.057C192.211 113.365 189.587 114.33 187.382 115.296C185.328 116.261 183.579 117.351 180.918 118.41C178.294 119.625 175.632 120.808 174.454 121.898C173.123 123.206 172.096 123.829 170.043 124.421C169.32 124.67 168.712 124.67 168.142 124.67C166.545 124.67 165.366 124.203 164.757 123.455C164.453 123.082 164.301 122.864 164.301 122.49C164.301 121.774 164.872 120.808 166.05 119.625C167.647 117.6 168.104 116.386 169.701 115.669C171.45 115.078 173.085 114.112 174.225 113.022C175.252 111.807 174.948 111.932 176.583 110.749C178.332 109.316 177.914 109.316 179.511 107.883C181.26 106.669 181.868 105.61 182.895 104.52C183.921 103.305 184.378 102.589 184.378 102.246C184.378 101.997 184.074 101.873 183.351 101.873C182.781 101.873 180.88 102.246 174.263 104.862C172.21 105.703 170.461 107.136 168.712 107.852C166.963 108.444 166.963 109.285 165.328 109.908C163.845 110.375 163.731 110.157 161.944 111.34C160.347 112.555 159.586 113.271 157.533 114.33C155.632 115.42 154.301 117.818 151.829 119.251C149.928 120.341 150.498 120.808 149.206 122.116C147.875 123.331 145.822 124.763 144.529 124.763C142.628 124.763 139.396 123.798 139.396 122.116C139.396 120.559 142.475 116.728 143.654 115.389C144.985 113.956 145.555 112.15 146.734 111.683C147.913 111.091 147.761 110.593 148.94 109.409C150.118 108.319 149.51 108.693 151.563 107.26C153.16 106.046 155.518 105.112 156.848 104.021C158.445 102.464 160.233 99.9416 161.107 99.2253C161.982 98.509 166.659 95.27 168.598 93.7128C170.347 92.4047 171.374 91.5638 173.009 90.8475C174.492 90.3803 175.632 89.6329 177.419 89.2903C179.016 89.0411 180.347 88.574 180.918 88.574C182.515 88.574 182.667 88.574 182.667 89.4149C182.667 90.2558 180.918 90.9721 178.864 92.6539C176.963 93.9619 175.632 94.9274 174.91 95.3011C174.035 95.7683 174.035 96.0174 171.83 97.5746C170.233 99.0073 170.233 99.7236 167.723 101.53C165.1 103.336 165.366 102.838 163.046 105.018C160.841 107.074 161.145 107.074 159.244 108.724C157.191 110.281 156.316 111.589 154.833 113.053C157.457 111.371 161.145 109.347 162.742 108.849H162.666Z" fill="white"/>
<path d="M260.958 115.701C262.289 115.109 263.886 114.143 265.064 113.302C266.243 112.462 267.536 111.621 267.84 111.621C268.144 111.621 268.715 111.994 268.715 112.337C268.715 112.586 268.144 112.804 267.688 113.178C266.814 113.894 266.091 114.268 264.76 115.202C263.277 116.168 261.528 117.009 260.502 117.6C259.475 118.317 255.673 119.749 252.593 120.372C249.513 120.964 247.459 121.587 247.041 121.587C246.737 121.587 243.239 121.96 240.463 122.178L238.714 122.895C236.661 123.611 233.162 123.985 230.653 123.985C227.877 123.985 226.128 122.054 226.128 121.338C226.128 119.78 228.485 118.815 230.805 118.815C232.136 118.815 234.912 119.905 237.535 119.905C237.839 119.905 238.258 120.03 238.714 120.03C239.588 120.03 240.919 119.78 242.668 118.348C243.847 117.507 245.292 115.576 246.167 115.109C247.65 114.735 247.764 112.462 249.551 111.496C251.452 110.904 253.049 108.257 254.532 107.167C256.129 105.952 257.041 105.018 257.46 104.177C258.334 103.336 258.791 102.62 259.513 101.904C259.665 101.655 259.665 101.436 259.665 101.187C259.665 100.72 259.513 100.346 258.791 100.346C257.916 100.346 257.194 100.72 255.558 101.312C255.406 101.312 255.254 101.437 255.102 101.437C253.771 102.028 251.604 103.492 250.425 103.585C249.855 103.585 248.372 105.143 246.167 105.734C244.836 106.451 241.908 108.008 239.703 109.347C237.801 110.313 236.927 111.496 234.569 112.835C232.098 114.392 232.516 114.642 230.159 115.607C228.257 116.573 225.025 119.313 222.972 120.777C221.375 122.085 222.097 122.21 221.223 123.549C219.892 124.981 218.713 125.822 216.812 126.321C216.09 126.57 215.215 126.694 214.341 126.694C213.314 126.694 212.439 126.445 212.439 126.103C212.439 125.137 213.618 123.331 215.215 121.649C216.698 119.843 218.447 118.784 219.892 117.102C221.375 115.669 222.668 113.738 223.999 111.714C225.025 109.565 226.774 108.942 228.98 106.202C231.451 103.336 232.478 102.246 234.531 100.315C236.432 98.0418 239.969 92.8719 242.592 90.7229C245.064 88.6674 246.091 87.6085 246.699 86.5185C247.421 85.4284 247.573 85.3038 249.056 84.2449C250.387 83.404 250.083 83.8712 251.414 82.314C252.441 80.8814 257.574 76.4278 259.323 75.5869C260.806 74.746 261.946 73.5314 262.707 72.597C263.886 71.6316 264.304 71.1644 265.787 69.7318C267.27 68.7663 269.285 66.9599 272.099 65.4027C275.027 64.3127 275.597 63.0046 277.536 63.0046C279.742 63.0046 280.768 63.5964 280.768 64.811C280.768 66.2436 276.814 70.1989 274.608 72.379C272.251 74.528 270.654 75.618 270.198 75.7426C269.741 75.8672 269.475 76.4589 268.867 76.9572C267.84 77.7981 266.395 79.2307 264.608 80.0716C262.555 81.1617 260.806 83.5598 259.323 84.9924C257.726 86.425 256.091 87.6396 253.885 89.1969C251.832 90.2869 251.832 90.8786 249.475 92.1867C247.421 93.2767 246.699 93.993 245.064 95.5503C243.315 97.1075 242.44 99.381 240.539 100.471C239.36 102.028 238.182 103.71 237.155 104.8C235.824 106.233 234.95 107.198 234.531 108.506C233.353 109.814 232.63 110.437 232.478 111.371C232.478 111.247 234.227 110.157 234.988 109.814C236.47 109.441 240.425 106.326 241.3 106.202C242.478 105.828 244.227 104.644 245.558 104.146C246.737 103.305 251.414 101.499 252.745 100.782C254.342 100.191 254.798 99.5679 256.243 98.9761C257.27 98.3844 260.045 97.1698 262.707 97.1698C265.369 97.1698 266.966 99.3187 266.966 101C266.966 102.558 265.369 106.762 263.734 107.852C262.403 108.693 260.083 111.091 259.779 111.558C259.323 112.275 256.129 114.673 254.076 115.638C252.326 116.604 252.174 117.445 250.121 118.628L248.22 119.718L252.022 119.002C254.38 118.628 255.254 118.285 255.673 118.285C255.977 118.285 257.003 117.694 257.003 117.694C257.726 117.569 259.361 116.604 260.958 115.763V115.701Z" fill="white"/>
<path d="M273.125 115.95C272.821 116.541 272.099 116.541 272.099 117.258C272.099 118.099 271.376 118.815 270.768 119.282C270.198 119.749 269.437 121.213 269.437 122.521C269.437 123.611 271.186 123.954 272.517 123.954C274 123.829 275.597 122.988 276.776 122.739C278.107 122.147 281.034 121.306 281.909 120.808C282.784 120.216 285.141 119.593 285.559 119.126C285.863 118.753 287.156 118.036 288.031 117.912C288.905 117.663 289.932 116.479 291.415 115.638C292.898 114.922 294.647 113.614 295.94 112.991C296.814 112.15 298.297 111.683 298.868 111.683C299.02 111.683 299.172 111.932 299.172 112.15C299.172 112.368 299.02 112.742 298.601 113.24C297.575 113.832 296.7 113.956 295.369 115.171C293.887 116.386 292.137 117.32 290.845 118.036C290.274 118.628 288.069 119.469 286.586 120.185C284.381 121.493 282.175 122.459 279.704 123.673C278.373 124.047 278.525 124.14 277.08 124.763C275.749 125.137 275.483 125.137 274.608 125.978C273.734 126.445 272.859 126.445 271.376 126.819C269.779 127.193 267.574 127.411 264.912 127.411C261.832 127.411 259.627 126.196 259.627 123.58C259.627 120.964 261.528 118.285 262.251 117.102C263.277 116.136 263.848 114.579 265.483 113.489C266.966 112.275 267.08 111.932 268.563 110.375C269.741 109.067 272.061 107.728 274.57 106.046C276.472 104.489 279.399 102.807 281.034 102.215C282.061 101.841 283.088 100.066 284.266 100.066C286.016 99.3498 287.194 98.976 288.373 98.1351C289.856 97.1697 293.506 95.9862 296.282 95.9862C298.906 95.9862 300.807 97.0763 300.807 97.7926C300.807 98.3843 300.655 99.5989 300.237 99.8169C300.084 99.9415 300.237 99.9415 299.932 100.191C299.476 100.315 297.575 102.246 295.978 103.305C294.229 104.52 292.898 104.987 291.301 105.703C289.248 106.669 288.677 107.26 288.069 107.51C284.989 108.942 282.061 109.908 281.034 110.749C279.552 111.34 276.358 112.057 276.358 112.057C276.053 112.773 273.734 115.42 273.125 115.887V115.95ZM283.088 107.79C284.989 107.074 286.016 106.357 286.738 106.108C287.308 105.641 287.917 105.143 288.943 104.675C290.274 104.208 291.415 103.959 292.175 102.994C292.898 102.277 293.925 101.436 295.255 100.72C295.56 100.471 295.826 99.8792 295.826 99.5055C295.826 99.2563 295.255 99.0383 295.103 99.0383C294.533 99.0383 293.202 99.6301 292.175 100.253C290.693 100.845 288.943 102.184 287.194 103.025C285.597 104.239 285.863 104.115 283.962 105.174C282.365 106.388 278.677 109.378 277.65 109.97C279.552 109.378 281.301 108.413 283.088 107.821V107.79Z" fill="white"/>
<path d="M318.944 121.929C318.944 121.929 316.587 123.144 316.321 123.362C315.446 123.736 314.99 124.078 314.419 124.327C313.963 125.044 312.366 125.885 311.796 126.009C310.921 126.134 309.895 127.317 307.537 128.158C305.788 129.124 304.913 129.466 301.529 129.466C299.324 129.466 297.423 126.694 297.423 125.137C297.423 123.58 299.172 122.023 300.199 120.59C301.377 118.784 305.18 115.794 305.75 115.078C306.206 114.361 307.081 113.396 307.499 113.147C308.069 112.68 309.857 110.873 311.606 109.659C313.089 108.569 313.659 108.226 314.99 107.852C316.016 107.011 316.016 106.762 317.461 105.921C318.64 105.205 319.971 104.364 319.971 103.772C319.248 103.523 317.043 102.464 316.321 101.748C315.294 101.156 315.446 101.032 314.115 101.032C313.089 101.032 312.214 102.246 311.187 103.181C310.617 103.772 309.134 104.395 308.412 105.112C307.689 106.077 307.233 106.544 306.51 107.042C306.054 107.759 305.484 107.759 305.028 108.257C304.571 108.755 302.1 110.281 300.199 111.745C298.449 112.835 296.966 113.894 296.814 113.801C296.51 113.676 296.092 113.209 296.092 113.084C296.092 112.617 296.814 112.368 299.172 111.153C301.377 109.472 301.377 109.005 301.643 109.005C302.1 108.88 302.822 108.413 302.974 107.914C303.126 107.665 304.001 107.074 304.723 106.606C305.902 105.298 308.526 103.492 310.427 101.218C310.579 100.502 312.176 99.1941 312.176 98.2287C311.872 97.6369 310.997 96.0797 310.997 94.8651C310.997 94.6159 311.149 94.3979 311.149 94.2733C311.301 93.0587 312.176 90.7852 313.203 90.4426C313.773 89.9755 314.229 89.3526 315.408 88.5117C316.891 87.5462 317.88 87.5462 318.64 87.2036C319.363 86.6119 320.693 86.2382 322.29 86.2382C323.773 86.2382 324.914 86.9545 324.914 88.5117C324.914 89.7263 324.61 89.4772 324.192 90.1935C323.621 90.7852 323.735 91.7507 322.442 93.0587C321.568 93.8996 321.568 94.4914 320.693 95.5814C319.971 96.796 319.667 96.2977 318.944 97.5123C318.944 97.7615 318.792 97.9795 318.792 98.2287C318.792 98.945 319.248 99.5367 320.123 100.253C321.606 100.969 321.606 101.686 322.899 102.059C323.621 102.433 324.382 102.776 324.382 103.99C324.382 104.956 322.328 106.762 321.302 107.478C319.971 108.444 319.705 109.16 318.944 109.627C318.07 110.095 317.613 110.935 317.043 111.558C316.321 112.399 316.016 112.524 315.142 112.866C314.267 113.458 312.518 115.638 311.91 116.105C311.187 116.573 310.009 118.877 308.678 119.812C307.499 121.12 306.929 122.085 306.32 122.926C306.168 123.393 305.75 124.234 305.75 125.075C305.75 125.667 306.32 126.04 307.081 126.04C307.841 126.04 308.83 125.199 310.313 124.826C311.644 124.109 312.518 123.86 313.545 123.019C314.419 122.179 316.016 121.587 316.625 121.088C317.651 120.621 319.705 119.656 320.009 119.158C320.313 118.784 321.91 118.067 322.785 117.943C323.811 117.102 324.686 116.635 325.713 116.635C326.017 116.635 326.169 116.884 326.169 117.102C326.169 117.32 325.865 117.694 325.446 118.192C324.42 118.784 323.697 119.033 322.062 120.123L318.982 121.929H318.944Z" fill="white"/>
<path d="M395.106 113.583C395.106 112.617 398.756 111.185 403.89 108.413C408.871 105.765 410.62 103.118 412.825 101.468C415.183 99.7858 416.209 97.014 418.111 94.1487C419.289 92.5915 419.708 91.3769 419.708 90.536C419.708 89.8197 419.555 89.2279 419.137 88.7296C418.263 87.4216 416.514 86.9233 414.612 86.9233C414.156 86.9233 413.89 87.0478 413.434 87.0478C411.532 87.6396 405.943 90.0377 404.65 91.1277C403.053 92.0932 399.821 94.4913 398.642 95.4568C397.045 96.5468 393.813 97.7303 392.482 98.8203C391.152 100.128 387.501 103.99 386.323 104.582C385.752 105.298 383.965 106.856 383.091 108.07C382.064 109.627 378.68 111.309 376.626 113.458C374.155 115.264 372.52 116.572 370.619 118.846C368.565 120.995 367.121 121.618 365.79 123.891C364.193 126.289 363.166 127.38 361.987 128.563C361.113 130.12 359.782 132.051 359.059 133.951C358.489 135.757 356.284 136.723 354.649 139.588C353.622 141.27 353.47 141.519 353.47 141.986C353.47 142.235 353.47 142.578 353.622 143.076C353.774 143.668 353.774 144.633 353.926 146.191C353.926 151.36 358.337 154.35 361.531 154.35C363.736 153.977 368.109 153.634 370.315 152.918C372.368 152.201 374.117 151.111 378.68 149.212C382.634 147.405 385.562 145.723 387.463 144.415C389.669 143.201 392.749 141.301 394.041 140.335C395.22 139.495 398.566 136.629 402.673 134.449C406.931 132.176 410.582 127.722 420.544 120.279C423.016 118.472 422.902 117.631 424.955 115.95C427.464 114.517 427.008 113.894 429.213 112.835C431.267 111.745 432.598 109.129 435.525 106.482C438.91 103.835 442.408 99.4121 444.917 97.9483C447.275 96.6402 447.275 94.7093 450.469 92.9029C453.397 91.2212 455.602 87.515 459.1 83.9023C462.598 80.2896 466.439 76.1163 468.91 74.5279C470.812 73.2198 470.66 72.379 473.435 71.1643C476.515 70.0743 475.945 68.5171 477.086 67.4582C478.416 66.4927 480.47 65.1847 485.717 61.3228C491.002 57.3675 495.223 55.8103 497.01 55.8103C499.634 55.8103 501.269 56.184 501.269 57.3675C501.269 58.4575 498.797 57.9592 495.565 59.7656C493.36 60.9802 491.459 62.0391 490.28 63.7209C489.405 65.4027 487.656 66.2436 486.63 66.9599C485.451 68.1745 484.576 70.5726 483.131 71.8806C481.534 73.1887 481.801 74.4033 480.356 76.5523C478.606 78.6078 477.124 81.8468 476.553 83.4974C475.679 85.1792 473.473 87.7019 472.599 89.7262C471.876 91.5326 472.447 93.557 471.268 94.3979C470.393 95.3633 469.671 97.886 468.91 100.409C468.188 103.056 464.5 111.091 464.386 112.524C467.313 110.126 471.838 107.852 473.473 106.17C475.222 104.489 480.926 101.717 488.265 95.9862C492.942 92.3735 500.584 86.9856 503.778 84.712C506.858 82.1894 508.303 81.2239 511.383 78.6078C514.463 76.0851 512.866 75.6179 516.06 73.0953C519.14 70.3234 522.79 65.3092 525.148 61.5719C527.771 57.9592 529.406 54.5022 530.129 51.9795C530.699 49.1143 530.129 47.1833 532.182 47.1833C534.388 47.1833 538.76 50.2978 538.76 52.2287C538.76 52.4779 538.76 52.6024 538.608 52.8204C538.152 54.6268 537.277 55.8103 535.985 58.1149C534.958 60.513 532.905 63.0357 530.129 66.2747C527.201 69.5137 522.79 72.8773 521.041 74.559C519.862 76.1163 516.212 79.1061 513.703 81.037C511.079 83.0614 507.847 84.8678 503.284 88.605C498.873 92.0932 495.527 94.4913 494.196 95.6748C492.865 97.232 491.573 96.8894 489.367 98.9138C487.466 100.72 481.762 105.018 478.226 106.949C474.842 108.755 470.774 112.243 468.112 114.019C465.184 115.7 464.157 117.507 462.408 118.815C460.355 120.247 460.203 120.87 458.91 122.77C458.036 124.078 456.286 127.317 455.412 129.124C454.385 131.179 453.929 131.771 451.457 134.761C448.53 138.373 447.807 139.681 445.754 139.681C443.282 139.681 443.13 139.09 441.495 137.532C439.746 136.318 439.138 134.667 439.138 133.203C439.138 132.736 439.138 132.363 439.29 131.989C439.746 131.023 441.343 129.342 442.37 128.501C444.575 126.943 445.298 125.978 446.781 124.67C448.111 123.362 449.86 121.057 451.039 119.033C451.914 117.102 452.218 114.704 453.245 112.555C454.119 110.531 454.119 110.157 454.728 108.6C455.602 107.042 455.906 105.61 457.237 102.962C458.112 100.689 458.72 98.8826 461.192 92.8718C462.674 90.0065 464.69 86.3938 465.298 84.2449C464.272 85.6775 461.8 87.0167 460.469 88.6985C459.138 89.7885 457.845 91.2212 456.363 92.1866C454.88 93.1521 454.309 93.6193 453.283 94.8339C452.408 96.3911 451.381 96.3911 449.328 98.6646C446.704 100.938 442.864 104.053 440.697 106.451C438.948 108.6 437.465 110.157 436.286 111.371C434.955 112.804 432.902 114.486 430.849 115.451C428.795 116.541 427.921 117.476 427.464 118.441C426.59 119.157 425.107 120.715 423.51 121.306C422.331 121.774 419.708 124.545 416.171 127.411C412.521 130.4 407.958 133.639 404.726 136.038C401.494 138.311 398.566 140.242 397.121 141.55C395.791 142.858 394.346 143.574 392.292 144.322C389.821 145.287 388.034 146.969 384.84 148.776C381.608 150.924 377.805 151.89 375.6 152.606C374.003 153.447 372.102 155.004 369.288 155.378C366.36 155.845 363.128 157.06 361.075 157.06C359.326 157.06 356.55 156.219 355.219 155.752C353.888 155.285 351.987 155.285 348.755 153.105C345.979 151.298 345.105 146.876 345.105 143.637C345.105 142.796 345.105 142.08 345.257 141.488C345.827 138.373 346.131 138.965 347.31 136.692C348.185 134.418 349.059 132.145 350.39 130.681C351.721 128.999 351.987 128.532 352.862 126.476C353.888 124.203 356.664 121.805 358.413 119.033C360.771 116.168 363.965 113.988 365.866 111.714C367.615 109.69 370.695 107.042 373.927 104.987C377.159 102.713 378.604 101.872 380.391 101.032C382.14 100.315 383.014 99.3498 385.372 97.2008C387.425 95.0519 392.254 92.6538 395.791 91.3146C398.718 90.1 399.593 88.9165 401.494 88.5428C403.699 87.8264 404.574 86.9856 407.046 86.2692C409.403 85.4283 413.624 84.4629 416.856 84.4629C420.088 84.4629 423.434 86.9856 423.434 88.9165C423.282 90.2245 423.13 93.4635 422.407 94.429C421.951 95.3945 419.784 97.5434 419.175 98.976C418.301 100.066 417.578 100.907 416.818 101.966C416.095 103.181 416.095 103.897 414.612 104.489C412.863 104.956 411.38 107.478 409.935 108.195C408.909 109.16 408.186 110.468 406.285 110.967C404.954 111.34 403.509 112.773 402.026 113.489C400.848 114.455 399.099 115.763 397.502 115.763C396.475 115.763 394.992 115.171 394.992 113.489L395.106 113.583Z" fill="white"/>
<path d="M521.497 100.876C521.497 103.741 518.722 107.478 517.847 107.946C516.364 108.537 517.125 108.662 515.946 109.627C514.919 110.935 514.045 111.558 513.17 112.399C511.991 113.365 510.965 115.389 507.619 117.569C504.121 119.843 504.121 119.625 503.208 120.933C502.181 122.023 500.698 122.864 498.797 123.58C496.896 124.047 494.539 125.978 490.432 125.978C486.325 125.978 483.093 123.954 483.093 121.306C483.093 118.908 484.842 116.137 484.842 115.794C485.565 115.545 486.173 114.579 486.173 113.52C486.477 112.43 487.504 111.589 488.797 110.281C489.671 109.316 491.725 107.167 493.626 105.61C495.679 104.177 496.858 103.212 498.455 102.122C500.66 100.814 500.66 100.564 502.409 99.8481C504.006 99.1318 505.908 98.0418 507.239 97.45C508.569 96.8583 509.444 97.0763 511.041 96.7337C512.524 95.8928 514.843 95.8928 515.718 95.8928C518.189 95.8928 521.421 97.45 521.421 100.938L521.497 100.876ZM509.938 100.751C508.607 101.717 505.984 104.115 502.029 107.696C500.128 109.129 499.824 109.845 499.558 110.811C499.406 111.527 497.809 112.835 495.603 115.264C493.246 117.32 491.801 120.31 491.801 121.151C491.801 121.992 492.105 123.082 494.158 123.082C495.033 123.082 496.516 122.614 497.809 121.774C499.406 121.057 500.166 120.341 501.763 119.625C502.942 118.659 503.816 117.943 506.174 116.261C508.379 114.455 509.254 113.396 509.976 112.648C511.155 112.181 512.334 110.967 512.6 109.877C513.056 109.16 514.349 107.603 515.68 106.17C516.706 104.956 517.581 103.181 517.581 101.25C517.581 99.3187 516.706 98.6024 515.376 98.6024C514.919 98.6024 511.269 100.035 509.938 100.751Z" fill="white"/>
<path d="M560.168 75.2132H562.221C566.176 74.1231 566.48 73.9985 566.746 73.9985C567.012 73.9985 567.316 74.1231 567.468 74.4657C567.468 75.3066 566.138 75.8983 565.263 76.7392C564.236 77.5801 562.753 79.2619 561.765 80.2274C560.89 80.9437 560.586 81.5354 560.586 81.7846C560.738 81.7846 564.084 81.3174 565.871 81.1928C568.495 81.1928 570.7 81.1928 572.335 81.0683C574.389 80.9437 574.389 81.0683 576.594 80.8191C579.218 80.5699 579.218 80.8191 581.119 80.4454C582.868 80.1962 584.503 79.7291 585.378 79.7291C585.682 79.7291 585.834 79.7291 585.948 79.8536C586.404 79.8536 583.743 80.9437 582.564 81.2863C580.511 81.878 575.682 82.7189 572.754 82.7189C569.978 82.8435 568.495 82.968 567.05 83.3106C566.176 83.4352 564.274 83.3106 561.765 83.6844C559.141 84.1515 558.267 83.9335 556.327 84.9924C554.73 86.0825 551.803 89.7886 550.89 90.6295C549.863 91.4704 545.338 96.5157 543.855 97.1075C542.258 97.6992 542.677 99.8793 540.471 101.904C538 104.053 537.544 104.894 536.517 105.984C535.186 107.541 534.312 108.755 533.285 109.596C531.954 110.188 530.357 111.87 529.635 112.462C529.178 113.302 526.136 116.541 524.197 118.472C522.144 120.621 521.421 121.836 521.117 122.926C520.547 123.767 520.243 124.483 520.243 124.981C520.243 125.48 520.547 125.822 520.813 126.072C520.813 126.196 521.117 126.196 521.269 126.196C522.144 126.196 524.349 124.981 526.403 124.047C529.026 123.206 529.483 122.833 530.357 122.615C531.384 122.241 532.562 121.182 533.133 120.933C533.703 120.341 536.365 119.5 536.631 119.002C536.935 118.628 538.38 117.912 539.255 117.787C539.825 117.538 541.156 116.355 542.639 115.514L547.05 112.866C548.228 112.026 549.407 111.558 550.129 111.558C550.434 111.683 550.586 111.808 550.586 112.026C550.586 112.244 550.434 112.742 550.015 113.116C548.989 113.707 547.658 113.832 546.631 115.047C545.453 116.261 543.133 117.195 542.22 117.912C541.346 118.504 539.293 119.344 537.696 120.061C536.517 120.652 535.947 121.026 535.338 121.743C534.882 122.334 532.106 122.957 530.509 123.891C529.026 124.981 526.098 126.04 524.045 127.13C522.562 128.22 519.52 130.369 518.189 130.369C514.691 130.369 511.611 127.598 511.611 126.165C511.915 124.857 512.638 121.711 513.512 120.652C514.539 119.562 516.897 116.105 517.771 115.358C518.494 114.766 519.254 114.392 519.824 113.334C520.281 112.493 521.307 111.901 521.726 111.403C522.448 111.029 523.475 109.845 523.931 109.129C524.235 108.413 524.958 107.696 526.136 106.015C527.315 104.707 528.76 103.367 529.787 102.184C530.813 101.219 531.688 100.253 533.019 98.5713C534.197 97.0141 535.072 96.8895 535.947 96.1732C537.125 95.5814 537.544 93.6505 538.874 92.8096C539.901 91.9687 543.703 87.7642 545.034 86.7988C545.757 86.0825 546.213 85.3661 546.213 84.9924C546.213 84.7433 546.061 84.6187 545.643 84.6187C543.894 84.6187 542.411 84.6187 541.688 84.9924C539.939 85.2416 539.939 85.9579 539.065 85.9579C538.76 85.9579 537.163 84.9924 537.163 84.2761C537.163 83.6844 538.19 83.3106 539.635 82.9681L543.285 82.7189C545.491 82.4697 546.935 82.4697 547.962 82.3452C548.837 82.3452 549.863 82.3452 550.167 81.7534C550.89 81.1617 550.89 80.788 552.221 79.8225C553.247 78.7324 553.247 78.5144 554.274 77.7981C555.453 77.4244 555.871 76.1163 556.479 75.8672C557.354 75.2754 558.989 75.1509 560.13 75.1509L560.168 75.2132Z" fill="white"/>
<path d="M561.651 123.549C560.32 123.923 560.472 124.016 559.027 124.639C557.696 125.013 557.43 125.013 556.555 125.854C555.681 126.321 554.806 126.321 553.323 126.694C551.726 127.068 549.521 127.286 546.859 127.286C543.779 127.286 541.574 126.072 541.574 123.455C541.574 120.839 543.475 118.161 544.198 116.977C545.224 116.012 545.795 114.455 547.43 113.365C548.913 112.15 549.027 111.807 550.51 110.25C551.688 108.942 554.008 107.603 556.517 105.921C558.419 104.364 561.346 102.682 562.981 102.091C564.008 101.717 565.035 99.9416 566.213 99.9416C567.963 99.2253 569.141 98.8515 570.32 98.0106C571.803 97.0452 575.453 95.8617 578.229 95.8617C580.853 95.8617 582.754 96.9517 582.754 97.6681C582.754 98.2598 582.602 99.4744 582.184 99.6924C582.031 99.817 582.183 99.817 581.879 100.066C581.423 100.191 579.522 102.122 577.925 103.181C576.176 104.395 574.845 104.862 573.248 105.579C571.195 106.544 570.624 107.136 570.016 107.385C566.936 108.818 564.008 109.783 562.981 110.624C561.499 111.216 558.305 111.932 558.305 111.932C558 112.648 555.681 115.296 555.073 115.763C554.768 116.355 554.046 116.355 554.046 117.071C554.046 117.912 553.323 118.628 552.715 119.095C552.145 119.562 551.384 121.026 551.384 122.334C551.384 123.424 553.133 123.767 554.464 123.767C555.947 123.642 557.544 122.801 558.723 122.552C560.054 121.96 562.981 121.12 563.856 120.621C564.731 120.03 567.088 119.407 567.506 118.939C567.81 118.566 569.255 118.099 569.978 117.725C571.309 117.133 571.879 116.292 572.906 116.292C573.21 116.292 573.362 116.541 573.362 116.759C573.362 116.977 573.058 117.351 572.64 117.849C571.613 118.441 570.738 118.566 569.255 119.78C567.05 121.088 564.122 122.303 561.651 123.487V123.549ZM564.997 107.603C566.898 106.887 567.925 106.17 568.647 105.921C569.217 105.454 569.826 104.956 570.852 104.489C572.183 104.021 573.324 103.772 574.084 102.807C574.807 102.091 575.834 101.25 577.164 100.533C577.469 100.284 577.735 99.6924 577.735 99.3187C577.735 99.0695 577.164 98.8515 577.012 98.8515C576.442 98.8515 575.111 99.4433 574.084 100.066C572.602 100.658 570.852 101.997 569.103 102.838C567.506 104.053 567.772 103.928 565.871 104.987C564.274 106.202 560.586 109.191 559.559 109.783C561.461 109.191 563.21 108.226 564.997 107.634V107.603Z" fill="white"/>
</svg>
