<?xml version="1.0" encoding="UTF-8"?>
<svg id="_レイヤー_2" data-name="レイヤー 2" xmlns="http://www.w3.org/2000/svg" viewBox="0 0 819.97 64.78">
  <defs>
    <style>
      .cls-1 {
        fill: #fff;
      }
    </style>
  </defs>
  <g id="_レイヤー_3" data-name="レイヤー 3">
    <g>
      <rect class="cls-1" x="290.46" y="14.87" width="7.44" height="4.56"/>
      <rect class="cls-1" x="391.6" y="35.32" width="16.56" height="6.43"/>
      <rect class="cls-1" x="391.6" y="43.1" width="16.56" height="6.67"/>
      <path class="cls-1" d="M137.82,23.75h1.68c.42-.65.84-1.42,1.25-2.3.51-1.09.98-2.17,1.42-3.24.19-.47.36-.91.5-1.32h-9.28c-.56.74-1.14,1.49-1.75,2.23-1.1,1.33-2.27,2.59-3.5,3.82l2.15.82h7.54Z"/>
      <path class="cls-1" d="M184.36,18.79c-.84.24-1.69.52-2.54.9-2.26,1.01-4.22,2.39-5.88,4.15-1.38,1.54-2.44,3.14-3.19,4.8-.75,1.66-1.13,3.49-1.13,5.47,0,1.25.17,2.43.5,3.55.34,1.12.78,2.03,1.32,2.74.54.7,1.15,1.06,1.82,1.06s1.42-.36,2.23-1.08,1.63-1.61,2.45-2.66c.82-1.06,1.55-2.14,2.21-3.26.66-1.12,1.18-2.1,1.56-2.93.64-1.38,1.16-2.85,1.56-4.42.4-1.57.6-2.98.6-4.22,0-.86-.18-1.7-.55-2.5-.28-.62-.61-1.13-.96-1.6Z"/>
      <rect class="cls-1" x="485.78" y="23.56" width="9.79" height="13.25"/>
      <rect class="cls-1" x="219.9" y="16.02" width="4.27" height="12.62"/>
      <rect class="cls-1" x="269.15" y="14.87" width="7.2" height="4.56"/>
      <rect class="cls-1" x="219.9" y="29.99" width="4.27" height="13.15"/>
      <rect class="cls-1" x="290.46" y="20.78" width="7.44" height="4.66"/>
      <rect class="cls-1" x="269.15" y="20.78" width="7.2" height="4.66"/>
      <rect class="cls-1" x="279.23" y="33.88" width="8.26" height="5.09"/>
      <rect class="cls-1" x="279.23" y="40.36" width="8.26" height="5.33"/>
      <rect class="cls-1" x="129.66" y="25.1" width="8.16" height="10.46"/>
      <path class="cls-1" d="M0,0v64.78h819.97V0H0ZM580.29,16.67c.8-1.01,1.33-2.25,1.58-3.72h.62c.41,1.3.68,2.46.83,3.5h7.18v-6.48l7.06.58c-.03.32-.18.59-.43.82-.26.22-.69.4-1.3.53v4.56h6.67l2.74-2.74,4.66,4.56c-.19.16-.42.28-.67.36-.26.08-.64.14-1.15.17-.45.38-1,.84-1.66,1.37-.66.53-1.33,1.03-2.02,1.51-.63.44-1.17.83-1.65,1.18,1.09.61,1.96,1.26,2.61,1.96.88.94,1.42,1.86,1.63,2.76.21.9.15,1.67-.17,2.33-.32.66-.83,1.1-1.54,1.32-.7.22-1.52.11-2.45-.34-.51-1.18-1.23-2.39-2.16-3.62-.93-1.23-1.93-2.41-3-3.53-1.07-1.12-2.12-2.08-3.14-2.88l.43-.38c2.69.38,4.87.97,6.55,1.75.21.1.39.2.58.29.09-.52.19-1.12.31-1.83.13-.78.25-1.57.36-2.35.03-.19.05-.38.08-.55h-19.4c0,.16.02.33.02.48-.02,1.44-.26,2.58-.72,3.43-.46.85-1.05,1.44-1.75,1.78-.7.34-1.39.46-2.06.36-.67-.1-1.23-.36-1.68-.79-.45-.43-.67-1.01-.67-1.73s.35-1.53,1.06-2.42c.96-.48,1.84-1.22,2.64-2.23ZM592.58,22.74c-.13.26-.32.44-.58.55-.26.11-.66.14-1.2.07-1.31,1.73-3.03,3.43-5.16,5.11-2.13,1.68-4.54,3.02-7.22,4.01l-.43-.58c1.31-1.06,2.52-2.28,3.62-3.67,1.1-1.39,2.06-2.84,2.88-4.34.82-1.5,1.46-2.9,1.94-4.18l6.14,3.02ZM568.24,10.41c2.14.19,3.86.58,5.16,1.15,1.3.58,2.22,1.24,2.78,1.99.56.75.84,1.5.84,2.23s-.22,1.36-.65,1.87c-.43.51-1.01.82-1.73.91-.72.1-1.51-.11-2.38-.62-.19-.86-.54-1.74-1.03-2.62-.5-.88-1.04-1.72-1.63-2.52-.59-.8-1.18-1.5-1.75-2.11l.38-.29ZM539.58,20.32c1.47-.66,2.94-1.13,4.39-1.42,1.46-.29,2.78-.43,3.96-.43,1.63,0,2.98.1,4.03.29,1.06.19,1.98.51,2.78.96.74.42,1.23.86,1.49,1.32.26.46.38.9.38,1.32,0,.61-.16,1.06-.48,1.34-.32.29-.77.5-1.34.62-.74.13-1.53.24-2.38.34-.85.1-1.77.29-2.76.58-.7.22-1.51.54-2.42.94-.91.4-1.84.84-2.78,1.32-.94.48-1.85.99-2.71,1.54l-.62-.72c.7-.61,1.42-1.21,2.14-1.8.72-.59,1.37-1.15,1.94-1.68.58-.53.99-.94,1.25-1.22.16-.19.25-.37.26-.53.02-.16-.19-.29-.62-.38-.43-.1-1.24-.14-2.42-.14-.74,0-1.71.07-2.93.22-1.22.14-2.83.49-4.85,1.03l-.34-.82c1.22-1.12,2.56-2.01,4.03-2.66ZM342.16,15.64c1.34.35,2.57.76,3.67,1.22s2.01,1.05,2.71,1.75c.54.45.91.89,1.1,1.32.19.43.29.87.29,1.32,0,.51-.16.94-.48,1.27-.32.34-.74.5-1.25.5-.42,0-.78-.16-1.1-.48-.32-.32-.69-.77-1.1-1.34-.42-.64-.96-1.38-1.63-2.23-.67-.85-1.57-1.74-2.69-2.66l.48-.67ZM47.44,38.03c-.22.21-.61.34-1.15.41-.13,1.54-.34,3.06-.65,4.58-.3,1.52-.84,3.02-1.61,4.49-.77,1.47-1.94,2.86-3.5,4.15-1.57,1.3-3.7,2.49-6.38,3.58l-.53-.58c1.79-1.34,3.18-2.73,4.15-4.15.98-1.42,1.68-2.9,2.11-4.42.43-1.52.7-3.06.79-4.63.1-1.57.16-3.15.19-4.75l6.96.58c-.03.29-.16.54-.38.74ZM61.02,52.65c-.42.45-1.09.78-2.02,1.01-.93.22-2.14.34-3.65.34h-2.35c-1.22,0-2.12-.14-2.71-.41-.59-.27-.97-.72-1.13-1.34s-.24-1.46-.24-2.52v-13.15l6.53.62c-.06.64-.53,1.02-1.39,1.15v10.08c0,.29.04.48.12.58.08.1.28.14.6.14h1.9c.21,0,.36-.02.46-.05.16,0,.3-.02.43-.07.13-.05.26-.15.38-.31.19-.29.44-.87.74-1.75.3-.88.6-1.83.89-2.86h.53l.19,4.75c.58.29.94.59,1.1.91.16.32.24.72.24,1.2,0,.67-.21,1.23-.62,1.68ZM61.34,21.95c-.27.08-.65.14-1.13.17-.7.45-1.58.96-2.62,1.54-.97.54-1.86.98-2.67,1.35.69.44,1.32.87,1.88,1.29-.1.54-.5.85-1.2.91l-7.63.7v1.99c0,.29.07.48.22.58.14.1.52.14,1.13.14h5.35c.56,0,.95-.02,1.18-.05.51-.03.88-.16,1.1-.38.19-.25.43-.7.72-1.32s.59-1.37.91-2.23h.53l.14,3.6c.64.26,1.07.53,1.3.82.22.29.34.66.34,1.1,0,.64-.25,1.18-.74,1.61-.5.43-1.36.75-2.59.96-1.23.21-2.97.31-5.21.31h-4.22c-1.41,0-2.46-.12-3.17-.36-.7-.24-1.17-.66-1.39-1.25-.22-.59-.34-1.4-.34-2.42v-2.65l-5.09.47v2.91c0,1.95-.1,3.97-.31,6.05-.21,2.08-.69,4.14-1.44,6.19-.75,2.05-1.89,3.99-3.41,5.83-1.52,1.84-3.61,3.5-6.26,4.97l-.48-.43c1.98-2.14,3.44-4.45,4.37-6.91.91-2.41,1.51-4.92,1.8-7.52-1.34,1.12-3.05,2.49-5.14,4.11-2.1,1.63-4.62,3.46-7.56,5.47-.19.67-.58,1.13-1.15,1.39l-2.74-6.24c.9-.22,2.21-.61,3.94-1.15.57-.18,1.16-.37,1.78-.56v-12.97h-4.46l-.38-1.34h4.85v-11.95h-4.85l-.38-1.39h9.36l2.74-3.84c.64.58,1.22,1.09,1.73,1.54.51.45,1.05.94,1.61,1.46.56.53,1.06,1.02,1.51,1.46-.13.51-.58.77-1.34.77h-4.99v11.42l1.92-3.06c.96.93,1.74,1.72,2.35,2.38.61.66,1.15,1.26,1.63,1.8-.13.51-.54.77-1.25.77h-4.66v11.23c1.74-.57,3.51-1.16,5.33-1.77l.18.44s.01-.07.01-.11c.29-2.66.43-5.31.43-7.97v-14.26l6.14,2.21h4.22v-9.94l7.06.58c-.03.32-.17.6-.41.84-.24.24-.68.42-1.32.55v3.26h4.7l2.69-3.46c1.09.9,2.02,1.66,2.78,2.28s1.44,1.22,2.02,1.8c-.1.51-.53.77-1.3.77h-10.9v3.31h5.76l2.78-2.83,4.9,4.7c-.16.16-.38.28-.65.36ZM86.75,16.46h-6.19v12.19h.48l2.3-3.74c.99.96,1.81,1.78,2.45,2.45.64.67,1.2,1.3,1.68,1.87-.13.51-.54.77-1.25.77h-5.66v11.37c2.27-.54,4.57-1.1,6.91-1.68l.14.48c-1.6,1.09-3.65,2.38-6.14,3.86-2.5,1.49-5.5,3.18-9.02,5.06-.13.29-.3.55-.53.79-.22.24-.48.39-.77.46l-2.54-6.38c1.06-.19,2.57-.5,4.54-.91.62-.13,1.27-.27,1.94-.42v-12.63h-5.09l-.38-1.34h5.47v-12.19h-5.38l-.38-1.39h10.7l2.88-3.94c.7.61,1.33,1.14,1.87,1.61.54.46,1.11.95,1.7,1.46.59.51,1.11,1.01,1.56,1.49-.1.51-.53.77-1.3.77ZM113.13,21.09c-.37.21-.82.38-1.37.5v31.2c-.03.13-.31.33-.84.6s-1.16.52-1.9.74c-.74.22-1.46.34-2.16.34h-.86v-4.7h-12.24v2.98c0,.19-.22.46-.67.79-.45.34-1.02.62-1.73.86-.7.24-1.47.36-2.3.36h-.96V16.7l5.9,2.45h1.88c.1-.68.21-1.44.32-2.3.16-1.18.32-2.41.48-3.67.16-1.26.27-2.39.34-3.38l7.87,1.63c-.19.74-.83,1.14-1.92,1.2-.48.67-1.04,1.45-1.68,2.33-.64.88-1.28,1.75-1.92,2.62-.43.58-.82,1.09-1.21,1.58h7.26l2.88-3.22,5.62,4.56c-.16.19-.42.39-.79.6ZM162.18,51.81c-.62.62-1.77,1.1-3.43,1.44-1.66.34-4.08.5-7.25.5h-17.04c-2.37,0-4.32-.23-5.86-.7s-2.67-1.26-3.41-2.38c-.74-1.12-1.1-2.67-1.1-4.66v-19.46c-1.96,1.57-3.97,2.93-6.05,4.05l-.43-.43c1.31-1.22,2.61-2.62,3.89-4.22,1.28-1.6,2.49-3.33,3.62-5.18,1.14-1.86,2.17-3.74,3.1-5.64.93-1.9,1.7-3.77,2.3-5.59l7.92,1.97c-.1.26-.27.45-.53.58-.26.13-.72.18-1.39.14-.64,1.08-1.35,2.17-2.12,3.26h8.12l3.02-3.02,5.28,4.56c-.32.32-.96.53-1.92.62-.8.7-1.7,1.46-2.69,2.28-.99.82-2.02,1.6-3.1,2.35-.8.56-1.61,1.04-2.42,1.46h10.46l2.69-2.93,5.62,4.22c-.16.22-.42.44-.79.65-.37.21-.81.36-1.32.46v12.43c0,.13-.26.31-.79.55s-1.15.46-1.87.65c-.72.19-1.4.29-2.04.29h-.96v-3.17h-22.03v9.26c0,.9.36,1.5,1.08,1.82.72.32,1.9.48,3.53.48h16.7c1.44,0,2.55-.07,3.34-.22.78-.14,1.42-.5,1.9-1.08.29-.35.62-.88.98-1.58.37-.7.74-1.5,1.1-2.4.37-.9.7-1.78.98-2.64h.58l.05,6.82c1.18.35,2.02.66,2.5.94.48.27.72.7.72,1.27,0,.86-.31,1.61-.94,2.23ZM206.61,40.38c-.83,2.03-2.14,3.85-3.94,5.45-1.79,1.6-4.1,2.9-6.94,3.89-2.83.99-6.28,1.57-10.34,1.73l-.19-.91c4.06-.96,7.32-2.3,9.77-4.03,2.45-1.73,4.22-3.78,5.3-6.14,1.09-2.37,1.63-4.93,1.63-7.68,0-2.94-.58-5.5-1.73-7.66-1.15-2.16-2.74-3.84-4.78-5.04-2.03-1.2-4.34-1.8-6.94-1.8-.64,0-1.28.06-1.93.14.41.42.83.88,1.26,1.44.54.71,1,1.45,1.37,2.23.37.78.55,1.59.55,2.42,0,1.22-.13,2.58-.38,4.08-.26,1.5-.66,2.99-1.2,4.46-.45,1.22-1,2.5-1.66,3.86-.66,1.36-1.42,2.69-2.3,3.98-.88,1.3-1.82,2.47-2.81,3.53-.99,1.06-2.05,1.9-3.17,2.52-1.12.62-2.27.94-3.46.94-.96,0-1.88-.34-2.76-1.01-.88-.67-1.66-1.58-2.35-2.74-.69-1.15-1.24-2.45-1.66-3.89-.42-1.44-.62-2.94-.62-4.51s.25-3.1.74-4.78c.5-1.68,1.27-3.34,2.33-4.99,1.06-1.65,2.38-3.14,3.98-4.49,1.95-1.7,4.14-2.98,6.58-3.84,2.43-.86,5.1-1.3,8.02-1.3s5.32.45,7.61,1.34c2.29.9,4.27,2.14,5.95,3.74,1.68,1.6,2.98,3.47,3.91,5.62.93,2.14,1.39,4.46,1.39,6.96,0,2.27-.42,4.42-1.25,6.46ZM229.5,46.26c0,.13-.25.33-.74.6-.5.27-1.08.5-1.75.7-.67.19-1.33.29-1.97.29h-.86v-3.31h-4.27v3.98c0,.13-.18.33-.53.6-.35.27-.85.51-1.49.72-.64.21-1.41.31-2.3.31h-.91V12.42l5.81,2.26h3.22l2.54-2.88,5.23,4.13c-.16.19-.41.38-.74.55s-.74.33-1.22.46v29.33ZM240.06,26.01v-7.01h-8.64l-.38-1.34h9.02v-7.44l7.2.58c-.03.32-.17.6-.41.84s-.68.41-1.32.5v5.52h3.65l2.83-3.79c.7.58,1.32,1.09,1.85,1.54.53.45,1.09.92,1.68,1.42.59.5,1.11.97,1.56,1.42-.13.51-.56.77-1.3.77h-10.27v7.01h4.8l3.02-3.98c.74.61,1.38,1.14,1.92,1.61.54.46,1.13.96,1.75,1.49s1.18,1.03,1.66,1.51c-.1.51-.53.77-1.3.77h-27.17l-.38-1.39h10.22ZM235.48,42.11c-.34-1.01-.74-1.98-1.22-2.9-.48-.93-.99-1.76-1.54-2.5l.43-.29c2.21.51,3.93,1.18,5.16,1.99,1.23.82,2.09,1.67,2.57,2.57s.66,1.74.55,2.52c-.11.78-.44,1.42-.98,1.92-.54.5-1.2.74-1.97.74s-1.57-.35-2.4-1.06c-.06-.99-.26-1.99-.6-3ZM257.68,34.98h-6.38v13.49c0,1.25-.17,2.32-.5,3.22s-1.02,1.61-2.04,2.14c-1.02.53-2.62.89-4.8,1.08-.06-.83-.18-1.56-.34-2.18s-.46-1.14-.91-1.56c-.38-.42-.9-.77-1.56-1.06-.66-.29-1.62-.53-2.9-.72v-.67c1.12.06,2.07.12,2.86.17.78.05,1.53.09,2.23.12.7.03,1.18.05,1.44.05.38,0,.66-.06.82-.19.16-.13.24-.34.24-.62v-13.25h-15.55l-.38-1.39h15.94v-5.47l6.96.62c-.06.64-.56,1.02-1.49,1.15v3.7h.62l2.5-3.41c1.06.9,1.94,1.65,2.66,2.26.72.61,1.35,1.2,1.9,1.78-.1.51-.53.77-1.3.77ZM269.15,52.74c0,.26-.21.54-.62.86-.42.32-.97.61-1.66.86-.69.26-1.45.38-2.28.38h-.91V11.08l5.66,2.45h6.53l2.4-2.59,4.99,3.74c-.13.16-.34.34-.65.53s-.66.32-1.08.38v12.53c0,.1-.25.26-.74.48-.5.22-1.07.42-1.73.58-.66.16-1.26.24-1.8.24h-.91v-2.59h-7.2v25.92ZM304.72,15.35c-.32.19-.74.34-1.25.43v32.45c0,1.28-.15,2.38-.46,3.29-.3.91-.94,1.64-1.9,2.18-.96.54-2.46.91-4.51,1.1-.06-.93-.16-1.72-.29-2.38-.13-.66-.35-1.19-.67-1.61-.32-.42-.74-.78-1.27-1.08-.53-.3-1.3-.55-2.33-.74v-.16s-.01,0-.02.01c-.5.26-1.07.49-1.73.7-.66.21-1.29.31-1.9.31h-.91v-2.78h-8.26v1.78c0,.16-.21.37-.62.62-.42.26-.96.49-1.63.7-.67.21-1.36.31-2.06.31h-.72v-20.11l5.28,2.16h7.58l2.4-2.64,4.99,3.79c-.13.19-.34.38-.62.55-.29.18-.64.3-1.06.36v13.73s-.02.03-.03.05c.51.04.99.07,1.4.09.59.03,1.15.06,1.68.1s.92.05,1.18.05c.35,0,.59-.09.72-.26.13-.17.19-.41.19-.7v-20.83h-7.44v.86c0,.16-.22.38-.67.65-.45.27-1.02.51-1.7.72-.69.21-1.4.31-2.14.31h-.77V11.32l5.47,2.21h6.77l2.54-2.98,5.47,4.22c-.16.19-.4.38-.72.58ZM337.31,38.66c-.35,2.13-.89,4.12-1.61,5.98-.72,1.86-1.69,3.42-2.9,4.7-.74.83-1.66,1.51-2.76,2.04s-2.26.79-3.48.79c-.93,0-1.61-.22-2.04-.67-.43-.45-.81-1.26-1.13-2.45-.06-.32-.17-.62-.31-.89-.14-.27-.41-.63-.79-1.08-.38-.45-.98-1.09-1.78-1.92l.43-.62c1.22.61,2.29,1.1,3.22,1.49.93.38,1.71.58,2.35.58.77,0,1.38-.13,1.85-.38.46-.26.92-.69,1.37-1.3.58-.7,1.1-1.62,1.56-2.74.46-1.12.85-2.35,1.15-3.7.3-1.34.54-2.7.7-4.08s.24-2.67.24-3.89c0-1.28-.22-2.26-.67-2.93-.45-.67-1.23-1.01-2.35-1.01-.7,0-1.58.14-2.64.41-.27.07-.56.16-.84.24-.07.16-.13.3-.19.46-.66,1.54-1.31,3.07-1.97,4.61-.66,1.54-1.26,2.91-1.8,4.13-.54,1.22-1.13,2.49-1.75,3.82s-1.26,2.63-1.9,3.91c-.64,1.28-1.25,2.46-1.82,3.53-.58,1.07-1.07,1.98-1.49,2.71-.51.9-.99,1.5-1.44,1.8-.45.3-1.01.46-1.68.46-.58,0-1.11-.26-1.61-.79-.5-.53-.74-1.26-.74-2.18,0-.7.07-1.26.22-1.68s.44-.9.89-1.44c.8-.96,1.61-2.05,2.42-3.26.82-1.22,1.64-2.54,2.47-3.96.83-1.42,1.65-2.94,2.45-4.54.67-1.44,1.31-2.89,1.92-4.34.18-.43.35-.85.53-1.28-.13.05-.26.1-.38.15-1.09.45-2.03.85-2.83,1.2-.8.35-1.46.64-1.99.86-.53.22-1.13.34-1.8.34-.45,0-.97-.23-1.56-.7-.59-.46-1.11-1.04-1.56-1.73-.45-.69-.74-1.35-.86-1.99-.13-.67-.12-1.27.02-1.8.14-.53.31-1.03.5-1.51l.67-.19c.45.8.86,1.43,1.22,1.9.37.46.86.7,1.46.7.51,0,1.18-.06,1.99-.19.82-.13,1.74-.3,2.76-.5,1.02-.21,2.11-.43,3.26-.67.25-.05.51-.09.76-.14.31-.85.59-1.67.82-2.43.35-1.15.63-2.14.84-2.98.21-.83.31-1.44.31-1.82,0-.32-.05-.6-.14-.84-.1-.24-.29-.44-.58-.6-.42-.26-.95-.47-1.61-.65-.66-.18-1.3-.33-1.94-.46v-.72c.48-.29,1.07-.57,1.78-.84.7-.27,1.57-.41,2.59-.41.51,0,1.14.1,1.9.31.75.21,1.49.5,2.21.86.72.37,1.32.76,1.8,1.18s.72.83.72,1.25c0,.45-.12.85-.36,1.2-.24.35-.52.72-.84,1.1-.32.38-.61.85-.86,1.39-.29.74-.7,1.74-1.22,3.02-.07.16-.14.34-.21.5.12-.02.23-.03.35-.05,1.1-.14,2.06-.22,2.86-.22,1.92,0,3.46.66,4.63,1.97,1.17,1.31,1.75,3.57,1.75,6.77,0,2.02-.18,4.09-.53,6.22ZM351.93,40.07c-.53.93-1.32,1.41-2.38,1.44-.54,0-.96-.14-1.25-.41-.29-.27-.58-.58-.86-.91s-.69-.6-1.2-.79c-.35-.13-.84-.24-1.46-.34-.62-.1-1.27-.18-1.94-.26-.67-.08-1.28-.12-1.82-.12l-.19-.86c.67-.19,1.3-.36,1.9-.5.59-.14,1.13-.29,1.61-.46s.9-.3,1.25-.43c.51-.22.89-.5,1.13-.82.24-.32.36-.8.36-1.44-.03-.7-.16-1.58-.38-2.62-.22-1.04-.66-2.07-1.3-3.1-.64-.99-1.41-1.84-2.3-2.54-.9-.7-2-1.22-3.31-1.54l.29-.86c1.57.06,3.13.37,4.68.91,1.55.54,2.92,1.39,4.1,2.54,1.38,1.22,2.37,2.65,2.98,4.3.61,1.65.91,3.4.91,5.26,0,1.44-.26,2.62-.79,3.55ZM354.09,18.93c-.27.3-.66.46-1.18.46-.45,0-.84-.18-1.18-.53-.34-.35-.74-.83-1.22-1.44-.42-.58-.94-1.22-1.56-1.92-.62-.7-1.56-1.54-2.81-2.5l.43-.62c1.34.26,2.56.58,3.65.98,1.09.4,1.95.86,2.59,1.37.64.45,1.08.91,1.32,1.39.24.48.36,1.01.36,1.58,0,.51-.14.92-.41,1.22ZM369.54,53.56c-.56.58-1.3.86-2.23.86-.7,0-1.3-.17-1.8-.5s-.94-.89-1.32-1.66c-.42-.9-.9-1.87-1.44-2.93-.54-1.06-1.24-2.15-2.09-3.29-.85-1.14-1.99-2.28-3.43-3.43l.43-.62c3.23.58,5.78,1.39,7.63,2.45,1.86,1.06,3.22,2.26,4.08,3.6.42.58.69,1.13.82,1.66.13.53.19,1.05.19,1.56,0,.96-.28,1.73-.84,2.3ZM415.34,35.85c-.34.19-.76.35-1.27.48v16.42c0,.16-.26.39-.79.7-.53.3-1.17.58-1.92.84-.75.26-1.5.38-2.23.38h-.96v-3.5h-16.56v1.87c0,.16-.24.39-.72.7s-1.08.57-1.8.79-1.48.34-2.28.34h-.86v-23.33l6,2.4h15.7l2.78-3.02,5.62,4.37c-.13.19-.36.38-.7.58ZM421.6,28.6c-.26.13-.56.19-.91.19h-42.38l-.38-1.34h14.94c-.71-.06-1.42-.41-2.13-1.06-.03-.99-.18-1.99-.43-3-.26-1.01-.58-1.99-.96-2.95-.38-.96-.8-1.82-1.25-2.59l.48-.24c2.08.61,3.69,1.34,4.82,2.18,1.14.85,1.9,1.73,2.3,2.64.4.91.52,1.76.36,2.54-.16.79-.51,1.4-1.06,1.85-.44.36-.96.57-1.55.62h9.42c.34-.82.68-1.68,1.01-2.64.45-1.31.87-2.63,1.27-3.96.38-1.25.68-2.37.93-3.38h-25.87l-.38-1.34h16.85v-6.14l7.39.58c-.03.29-.15.54-.36.74-.21.21-.62.36-1.22.46v4.37h9.02l3.12-3.98c.74.58,1.4,1.1,1.99,1.58.59.48,1.21.98,1.85,1.51.64.53,1.22,1.02,1.73,1.46-.03.26-.17.45-.41.58-.24.13-.54.19-.89.19h-12.15l6.87,2.11c-.1.29-.29.52-.58.7s-.7.25-1.25.22c-.67.74-1.5,1.57-2.47,2.5-.98.93-1.99,1.86-3.05,2.81-.66.59-1.32,1.13-1.98,1.66h8.75l3.17-4.18c.8.64,1.5,1.2,2.11,1.68.61.48,1.24.99,1.9,1.54.66.54,1.27,1.06,1.85,1.54-.06.26-.22.45-.48.58ZM461.27,50.08c-.43.5-.98.87-1.66,1.13-.64.26-1.58.48-2.81.67-1.23.19-2.66.35-4.27.48-1.62.13-3.37.19-5.26.19-2.75,0-5.2-.31-7.34-.94-2.14-.62-3.83-1.57-5.06-2.83-1.23-1.26-1.85-2.86-1.85-4.78,0-1.44.3-2.83.91-4.18.61-1.34,1.4-2.61,2.38-3.79.98-1.18,2.01-2.26,3.1-3.22.83-.73,1.61-1.35,2.36-1.91-.5-.3-.95-.64-1.33-1.04-.62-.66-1.14-1.38-1.56-2.18-.35-.77-.66-1.73-.94-2.88-.27-1.15-.5-2.35-.7-3.6s-.35-2.37-.48-3.36c-.1-.54-.26-.98-.48-1.3-.22-.32-.58-.64-1.06-.96-.38-.26-.82-.5-1.32-.72-.5-.22-.98-.42-1.46-.58v-.72c.64-.26,1.29-.47,1.94-.65.66-.17,1.34-.26,2.04-.26,1.09,0,2.1.21,3.02.62.93.42,1.68.92,2.26,1.51.58.59.86,1.14.86,1.66,0,.48-.05.99-.14,1.54s-.14,1.14-.14,1.78.03,1.28.1,2.02c.06.74.16,1.46.29,2.18.13.72.29,1.34.48,1.85.35.8.8,1.46,1.34,1.99.27.26.56.49.88.7.04-.03.08-.05.12-.08,1.12-.69,2.24-1.35,3.36-1.99,1.12-.64,2.11-1.21,2.98-1.7.86-.5,1.47-.87,1.82-1.13.32-.16.5-.35.55-.58.05-.22.02-.5-.07-.82-.16-.45-.43-.84-.82-1.18s-.77-.65-1.15-.94l.34-.58c.83.06,1.62.14,2.38.22.75.08,1.43.28,2.04.6.64.29,1.26.7,1.85,1.25.59.54,1.07,1.12,1.44,1.73.37.61.55,1.18.55,1.73s-.24.99-.72,1.34c-.48.35-1.3.72-2.45,1.1-1.22.35-2.6.84-4.15,1.46-1.55.62-3.1,1.3-4.66,2.04-1.55.74-3,1.49-4.34,2.26-1.06.64-2.06,1.32-3.02,2.04s-1.82,1.49-2.57,2.3c-.75.82-1.34,1.65-1.78,2.5-.43.85-.65,1.72-.65,2.62,0,.96.31,1.77.94,2.42.62.66,1.58,1.14,2.86,1.46,1.28.32,2.9.48,4.85.48,2.21,0,4.1-.13,5.69-.38s2.86-.5,3.82-.74,1.62-.36,1.97-.36c.93,0,1.81.09,2.64.26.83.18,1.5.48,1.99.91.5.43.74,1.03.74,1.8,0,.51-.22,1.02-.65,1.51ZM488.82,44.13c-.27.11-.68.14-1.22.07-1.34,1.34-2.97,2.7-4.87,4.06-1.9,1.36-4,2.62-6.29,3.79-2.29,1.17-4.7,2.14-7.22,2.9l-.34-.58c1.95-1.28,3.82-2.77,5.59-4.46,1.78-1.7,3.37-3.45,4.78-5.26,1.41-1.81,2.53-3.48,3.36-5.02l6.82,3.98c-.13.22-.33.39-.6.5ZM510.78,52.94c-.35.83-.94,1.38-1.78,1.63-.83.26-1.81.11-2.93-.43-.58-1.15-1.3-2.3-2.16-3.46-.86-1.15-1.82-2.3-2.86-3.43-1.04-1.14-2.12-2.2-3.24-3.19-1.12-.99-2.21-1.87-3.26-2.64l.38-.38c3.46.51,6.29,1.26,8.5,2.26,2.21.99,3.9,2.08,5.09,3.26,1.18,1.18,1.94,2.34,2.28,3.46.34,1.12.33,2.1-.02,2.93ZM512.27,38.2h-43.3l-.38-1.39h11.52v-13.25h-9.41l-.43-1.39h9.84v-11.76l7.39.62c-.03.35-.17.65-.41.89-.24.24-.68.41-1.32.5v9.74h9.79v-11.76l7.54.62c-.06.35-.22.65-.46.89-.24.24-.68.41-1.32.5v9.74h2.5l2.93-3.94c.7.58,1.33,1.1,1.87,1.56.54.46,1.12.96,1.73,1.49.61.53,1.17,1.03,1.68,1.51-.13.51-.58.77-1.34.77h-9.36v13.25h3.22l3.22-4.18c.8.61,1.51,1.16,2.14,1.66s1.27,1.02,1.94,1.56c.67.54,1.28,1.07,1.82,1.58-.13.51-.59.77-1.39.77ZM529.91,35.08c-.3.8-.62,1.61-.94,2.42-.32.82-.59,1.57-.82,2.26-.22.69-.4,1.26-.53,1.7-.19.96-.34,1.72-.46,2.28-.11.56-.17,1.03-.17,1.42,0,.86.18,1.7.53,2.5s.53,1.57.53,2.3c0,1.82-.82,2.74-2.45,2.74-.58,0-1.15-.2-1.73-.6-.58-.4-1.09-.92-1.54-1.56-.58-.83-1.09-1.8-1.54-2.9-.45-1.1-.79-2.38-1.03-3.82-.24-1.44-.36-3.04-.36-4.8,0-1.5.12-3.02.36-4.54.24-1.52.53-2.96.86-4.32s.63-2.52.89-3.48c.29-1.15.54-2.24.74-3.26.21-1.02.33-2.06.36-3.12,0-1.12-.26-2.17-.79-3.14-.53-.98-1.1-1.82-1.7-2.52l.48-.53c.8.19,1.49.41,2.06.65.58.24,1.15.55,1.73.94.48.32,1.05.8,1.7,1.44.66.64,1.22,1.38,1.68,2.21.46.83.7,1.7.7,2.59,0,.67-.16,1.32-.48,1.94s-.77,1.48-1.34,2.57c-.61,1.06-1.18,2.22-1.73,3.5-.54,1.28-1,2.62-1.37,4.03-.37,1.41-.55,2.78-.55,4.13,0,.74.05,1.35.14,1.85.1.5.22.89.38,1.18.32.74.72.75,1.2.05.29-.45.65-1.03,1.08-1.75.43-.72.88-1.5,1.34-2.35.46-.85.92-1.68,1.37-2.5.45-.82.82-1.53,1.1-2.14l1.06.48c-.22.64-.49,1.36-.79,2.16ZM557.13,48.83c-.98.53-2.26.88-3.86,1.06-1.6.18-3.38.26-5.33.26-3.01,0-5.46-.4-7.37-1.2-1.9-.8-3.34-1.91-4.32-3.34-.98-1.42-1.59-3.06-1.85-4.92-.1-.74-.14-1.45-.12-2.14.02-.69.04-1.32.07-1.9l.82-.1c.16.58.34,1.2.55,1.87.21.67.44,1.25.7,1.73.64,1.09,1.36,1.97,2.16,2.64.8.67,1.83,1.16,3.1,1.46,1.26.3,2.89.46,4.87.46,1.6,0,2.92-.08,3.96-.24,1.04-.16,1.86-.31,2.47-.46.61-.14,1.07-.22,1.39-.22.7,0,1.38.1,2.02.31.64.21,1.17.51,1.58.91.42.4.62.9.62,1.51,0,.99-.49,1.75-1.46,2.28ZM564.59,20.82c2.11.26,3.78.69,4.99,1.3,1.22.61,2.07,1.29,2.57,2.04.5.75.72,1.49.67,2.21s-.3,1.32-.77,1.8-1.04.75-1.73.82c-.69.06-1.43-.19-2.23-.77-.13-.86-.4-1.72-.82-2.57-.42-.85-.89-1.67-1.42-2.47-.53-.8-1.08-1.47-1.66-2.02l.38-.34ZM574.6,31.96c-.37,1.41-.7,2.68-1.01,3.82-.3,1.14-.5,1.94-.6,2.42-.13.7-.26,1.42-.38,2.14-.13.72-.18,1.37-.14,1.94.03.64.15,1.25.36,1.82.21.58.44,1.19.7,1.85.26.66.47,1.38.65,2.18.18.8.23,1.73.17,2.78-.03,1.22-.42,2.18-1.15,2.9-.74.72-1.68,1.08-2.83,1.08-.51,0-1.02-.19-1.51-.58-.5-.38-.82-1.01-.98-1.87.32-1.73.5-3.34.55-4.82.05-1.49,0-2.74-.14-3.74s-.41-1.62-.79-1.85c-.29-.22-.62-.4-1.01-.53-.38-.13-.85-.21-1.39-.24v-.91h2.11c.35,0,.62-.04.79-.12s.39-.34.65-.79c.19-.32.37-.62.53-.91.16-.29.38-.7.65-1.22.27-.53.64-1.31,1.1-2.35.46-1.04,1.1-2.46,1.92-4.25.82-1.79,1.86-4.1,3.14-6.91l.77.19c-.29,1.06-.62,2.3-1.01,3.72-.38,1.42-.76,2.84-1.13,4.25ZM610.38,37.96c-1.06.35-1.9,1-2.54,1.94-.64.94-1.04,1.93-1.2,2.95-.81-.41-1.59-.88-2.35-1.37v11.5c0,.13-.26.3-.77.53-.51.22-1.12.43-1.82.62-.7.19-1.36.29-1.97.29h-.96v-2.83h-11.09v1.58c0,.13-.18.33-.53.6-.35.27-.86.52-1.51.74-.66.22-1.43.34-2.33.34h-.96v-13.75c-1.98,1.16-3.99,2.17-6.05,2.99l-.29-.53c1.5-1.02,2.99-2.22,4.46-3.6,1.47-1.38,2.84-2.84,4.1-4.39,1.26-1.55,2.34-3.1,3.22-4.63.88-1.54,1.5-2.98,1.85-4.32l7.54,1.73c-.06.29-.24.51-.53.67s-.78.27-1.49.34c1.06,1.38,2.44,2.58,4.15,3.62,1.71,1.04,3.54,1.91,5.5,2.62,1.95.7,3.82,1.28,5.62,1.73l-.05.62ZM628.17,33.98c-.24.83-.48,1.66-.72,2.47-.24.82-.46,1.58-.65,2.28-.19.71-.35,1.33-.48,1.87-.1.54-.18,1.06-.24,1.54-.06.48-.1,1.06-.1,1.73,0,.58.07,1.14.22,1.7s.28,1.11.41,1.66c.13.54.19,1.12.19,1.73,0,.8-.22,1.42-.65,1.85-.43.43-1.06.65-1.9.65-.67,0-1.31-.26-1.92-.77-.61-.51-1.17-1.2-1.68-2.06-.64-1.09-1.24-2.56-1.8-4.42-.56-1.86-.84-4.11-.84-6.77,0-1.7.14-3.34.43-4.92s.62-3.12.98-4.61c.37-1.49.7-2.93.98-4.32.29-1.39.43-2.73.43-4.01,0-1.12-.26-2.16-.79-3.12-.53-.96-1.11-1.81-1.75-2.54l.43-.58c.83.19,1.54.41,2.11.65.58.24,1.15.55,1.73.94.48.29,1.05.77,1.7,1.44.66.67,1.22,1.42,1.7,2.26s.72,1.7.72,2.59c0,.67-.15,1.34-.46,1.99-.3.66-.7,1.42-1.18,2.28-.61,1.09-1.18,2.23-1.7,3.43-.53,1.2-.95,2.42-1.27,3.67-.32,1.25-.48,2.51-.48,3.79,0,.74.06,1.44.19,2.11.13.67.29,1.22.48,1.63.19.35.4.53.62.53s.43-.14.62-.43c.32-.48.66-1.07,1.03-1.78.37-.7.74-1.48,1.13-2.33s.76-1.7,1.13-2.54c.37-.85.71-1.66,1.03-2.42l1.01.43c-.22.77-.46,1.57-.7,2.4ZM656.42,25.17c-.29.4-.82.78-1.58,1.13-.67.32-1.58.66-2.71,1.01-.9.28-1.91.54-2.98.8.05.93.09,1.89.15,2.92.08,1.55.12,3.12.12,4.7s-.08,3.1-.24,4.54c-.16,1.44-.46,2.72-.91,3.84-.74,1.99-1.77,3.62-3.1,4.92-1.33,1.3-2.9,2.35-4.7,3.17-1.81.82-3.82,1.5-6.02,2.04l-.38-.72c2.46-1.34,4.5-2.91,6.1-4.7,1.6-1.79,2.75-4.18,3.46-7.15.29-.99.49-2.06.6-3.22.11-1.15.18-2.34.22-3.55.03-1.22.02-2.43-.02-3.65-.03-.75-.05-1.47-.07-2.21-.1.01-.21.03-.31.05-1.46.19-2.86.29-4.2.29-.99,0-2.02-.14-3.1-.43-1.07-.29-2.1-.88-3.1-1.78-.99-.9-1.86-2.26-2.59-4.08l.48-.48c1.31.83,2.54,1.44,3.7,1.82s2.35.58,3.6.58c1.18,0,2.53-.14,4.03-.41.43-.08.86-.18,1.29-.27-.06-1.04-.13-2.05-.21-3.02-.08-1.02-.17-1.87-.26-2.54-.03-.54-.14-.95-.31-1.22-.18-.27-.41-.49-.7-.65-.45-.29-.95-.52-1.51-.7-.56-.18-1.18-.34-1.85-.5l-.1-.72c.7-.48,1.47-.89,2.3-1.22.83-.34,1.57-.5,2.21-.5.77,0,1.62.16,2.57.48.94.32,1.74.73,2.4,1.22.66.5.98,1.03.98,1.61,0,.42-.1.86-.31,1.32-.21.46-.33,1.11-.36,1.94-.06.58-.09,1.28-.07,2.11,0,.36.02.73.03,1.1.69-.24,1.3-.48,1.82-.72.8-.35,1.36-.61,1.68-.77.32-.16.56-.24.72-.24.9,0,1.74.22,2.52.67.78.45,1.18,1.07,1.18,1.87,0,.48-.14.92-.43,1.32ZM702.69,20.32c-.45.43-1.07.65-1.87.65-.64,0-1.34-.03-2.09-.1-.75-.06-1.46-.1-2.14-.1-1.09,0-2.32.1-3.7.31-1.38.21-2.7.78-3.98,1.7-.45.29-.99.77-1.63,1.44-.64.67-1.28,1.54-1.92,2.62-.64,1.07-1.17,2.37-1.58,3.89-.42,1.52-.62,3.3-.62,5.35,0,1.86.22,3.34.67,4.44.45,1.1,1,1.94,1.66,2.52.66.58,1.26,1.02,1.8,1.34.9.45,1.88.76,2.95.94,1.07.18,2.07.26,3,.26h2.06c.54,0,1.1.16,1.68.48.58.32,1.06.73,1.44,1.22.38.5.58,1.05.58,1.66,0,.74-.23,1.3-.7,1.7-.46.4-1.05.67-1.75.82-.7.14-1.42.22-2.16.22-1.22,0-2.42-.06-3.62-.19-1.2-.13-2.35-.37-3.46-.72-1.1-.35-2.15-.85-3.14-1.49-1.66-1.06-2.99-2.47-3.98-4.25-.99-1.78-1.49-4.18-1.49-7.22,0-2.27.34-4.43,1.03-6.48.69-2.05,1.67-3.94,2.95-5.66,1.28-1.73,2.83-3.2,4.66-4.42.19-.16.28-.29.26-.38-.02-.1-.15-.11-.41-.05-1.89.42-3.82.94-5.78,1.56-1.97.62-3.78,1.26-5.45,1.92-1.66.66-2.98,1.29-3.94,1.9-.51.29-1.03.63-1.56,1.03-.53.4-1.13.6-1.8.6-.58,0-1.18-.17-1.82-.5s-1.25-.78-1.82-1.34-1.05-1.16-1.42-1.8c-.37-.64-.58-1.25-.65-1.82-.03-.58,0-1.13.12-1.66.11-.53.2-.97.26-1.32l.58-.19c.45.61.93,1.16,1.44,1.66.51.5,1.09.74,1.73.74.74,0,1.7-.1,2.9-.31,1.2-.21,2.59-.49,4.18-.84s3.33-.77,5.23-1.25c1.9-.48,3.91-.96,6.02-1.44,1.7-.45,3.34-.85,4.92-1.2,1.58-.35,2.97-.65,4.15-.89,1.18-.24,2.03-.36,2.54-.36.74,0,1.45.06,2.14.17.69.11,1.34.31,1.94.6.64.29,1.18.66,1.61,1.1.43.45.65.99.65,1.63,0,.58-.22,1.08-.67,1.51ZM727.34,37.34c-.34,1.25-.61,2.38-.82,3.38-.21,1.01-.33,1.8-.36,2.38-.03.96,0,1.66.12,2.09.11.43.23.79.36,1.06.13.27.19.66.19,1.18,0,1.09-.5,1.86-1.51,2.3-1.01.45-2.26.37-3.77-.24-.99-.42-1.98-1-2.95-1.75-.98-.75-1.88-1.69-2.71-2.81-.83-1.12-1.54-2.44-2.11-3.96-.58-1.52-.93-3.24-1.06-5.16-.19-1.89-.22-3.83-.07-5.83.14-2,.22-3.82.22-5.45,0-.96-.13-1.82-.38-2.57-.26-.75-.66-1.47-1.22-2.16-.56-.69-1.26-1.38-2.09-2.09l.24-.53c.64-.03,1.38,0,2.21.07.83.08,1.6.26,2.3.55.8.35,1.61.86,2.42,1.51.82.66,1.5,1.37,2.06,2.14.56.77.84,1.54.84,2.3,0,.58-.13,1.2-.38,1.87-.26.67-.55,1.43-.89,2.28-.34.85-.63,1.83-.89,2.95-.26,1.12-.38,2.43-.38,3.94,0,1.41.21,2.62.62,3.62.42,1.01.91,1.83,1.49,2.47.58.64,1.12,1.07,1.63,1.3.35.13.69.17,1.01.12.32-.05.62-.23.91-.55.8-1.12,1.62-2.42,2.47-3.91.85-1.49,1.69-3.03,2.52-4.63l1.01.43c-.35,1.22-.7,2.45-1.03,3.7ZM749.75,40.12c-.53.8-1.38,1.2-2.57,1.2-.48,0-.96-.14-1.44-.43s-.82-.75-1.01-1.39c-.19-.67-.33-1.43-.41-2.28-.08-.85-.21-1.8-.38-2.86-.18-1.06-.52-2.26-1.03-3.6-.58-1.76-1.5-3.37-2.78-4.82-1.28-1.46-2.88-2.62-4.8-3.48l.24-.82c2.53.13,4.6.6,6.22,1.42,1.62.82,3.13,1.88,4.54,3.19.96.86,1.75,1.88,2.38,3.05.62,1.17,1.09,2.38,1.39,3.65.3,1.26.46,2.5.46,3.72,0,1.5-.26,2.66-.79,3.46ZM782.18,52.24c-.19.53-.54.96-1.03,1.3-.5.34-1.16.5-1.99.5-.64,0-1.2-.18-1.68-.53-.48-.35-.86-.75-1.15-1.2-.29-.51-.6-1.08-.94-1.7-.34-.62-.82-1.46-1.46-2.52-.93-1.5-2.33-3.2-4.2-5.09-1.87-1.89-4.22-4.03-7.03-6.43-.58-.48-1.01-1-1.3-1.56-.29-.56-.43-1.06-.43-1.51,0-.51.11-1,.34-1.46.22-.46.58-1,1.06-1.61.51-.61,1.17-1.37,1.97-2.28.8-.91,1.66-1.86,2.59-2.86.93-.99,1.84-1.98,2.74-2.98.9-.99,1.7-1.9,2.42-2.71.72-.82,1.26-1.46,1.61-1.94.38-.45.65-.83.79-1.15.14-.32.22-.64.22-.96,0-.51-.23-1.07-.7-1.68-.46-.61-1.05-1.23-1.75-1.87l.48-.72c.74.06,1.45.16,2.14.29.69.13,1.32.34,1.9.62.93.45,1.76,1.02,2.5,1.73.74.7,1.34,1.42,1.8,2.16s.7,1.39.7,1.97c0,.51-.15.92-.46,1.22s-.72.61-1.25.91c-.53.3-1.14.7-1.85,1.18-.86.61-1.84,1.32-2.93,2.14-1.09.82-2.17,1.66-3.24,2.52-1.07.86-2.06,1.68-2.95,2.45-.9.77-1.6,1.41-2.11,1.92-.64.64-1.09,1.14-1.34,1.49-.26.35-.38.69-.38,1.01s.17.65.5.98c.34.34.74.68,1.22,1.03,1.54,1.09,3.12,2.18,4.75,3.26,1.63,1.09,3.19,2.22,4.68,3.41,1.49,1.18,2.76,2.46,3.82,3.84.86,1.06,1.46,2,1.78,2.83.32.83.48,1.66.48,2.5,0,.48-.1.98-.29,1.51ZM803.25,51.16c-.61,1.02-1.42,1.85-2.42,2.47-1.01.62-2.15.94-3.43.94s-2.38-.31-3.41-.94c-1.02-.62-1.85-1.45-2.47-2.47s-.94-2.16-.94-3.41.31-2.42.94-3.43c.62-1.01,1.45-1.82,2.47-2.42,1.02-.61,2.16-.91,3.41-.91s2.42.3,3.43.91c1.01.61,1.82,1.42,2.42,2.42.61,1.01.91,2.15.91,3.43s-.3,2.38-.91,3.41Z"/>
      <rect class="cls-1" x="93.76" y="34.74" width="12.24" height="13.63"/>
      <path class="cls-1" d="M797.39,42.71c-1.41,0-2.61.5-3.6,1.49-.99.99-1.49,2.18-1.49,3.55s.5,2.57,1.49,3.58c.99,1.01,2.19,1.51,3.6,1.51s2.56-.5,3.55-1.51c.99-1.01,1.49-2.2,1.49-3.58s-.5-2.56-1.49-3.55c-.99-.99-2.18-1.49-3.55-1.49Z"/>
      <rect class="cls-1" x="143.25" y="25.1" width="8.45" height="10.46"/>
      <rect class="cls-1" x="93.76" y="20.49" width="12.24" height="12.91"/>
      <path class="cls-1" d="M43.22,21.06h-5.09v6.36l5.09-.47v-5.22l6.14.58c-.06.64-.53,1.03-1.39,1.15v3.05l1.87-.17,2.16-3.22c.89.57,1.66,1.07,2.32,1.5.09-.68.19-1.47.29-2.41.05-.41.08-.79.12-1.15h-11.52Z"/>
      <path class="cls-1" d="M594.5,29.85c-1.09,1.95-2.6,3.83-4.54,5.64-1.27,1.18-2.63,2.28-4.07,3.32l2.41.93h10.13l1.6-1.63c-.23-.22-.46-.42-.69-.65-2.18-2.22-3.79-4.76-4.85-7.61Z"/>
      <rect class="cls-1" x="587.68" y="41.08" width="11.09" height="9.17"/>
    </g>
  </g>
</svg>