<?xml version="1.0" encoding="UTF-8"?>
<svg id="_レイヤー_2" data-name="レイヤー 2" xmlns="http://www.w3.org/2000/svg" viewBox="0 0 355.66 355.66">
  <defs>
    <style>
      .cls-1 {
        fill: #fff;
      }
    </style>
  </defs>
  <g id="_レイヤー_2-2" data-name="レイヤー 2">
    <g>
      <g>
        <g>
          <path class="cls-1" d="M84.37,195.92v3.55h-32.3v-3.55h5.06c2.91,0,3.45-1.72,2.58-4.52l-6.14-17.12h-22.18l-6.14,17.44c-.86,2.91-.22,4.2,2.8,4.2h4.52v3.55H10.19v-3.55c5.92,0,7.54-.97,9.47-5.92l23.69-61.59h10.23l22.4,62.13c1.83,4.74,2.69,5.38,8.4,5.38ZM52.18,170.29l-9.58-26.59h-.32l-9.48,26.59h19.38Z"/>
          <path class="cls-1" d="M184.72,195.92v3.55h-27.46v-3.55c4.95,0,5.71-.65,5.71-4.85v-25.84c0-7.75-3.01-10.98-8.18-10.98-4.41,0-7.32,2.69-9.26,7v29.29c0,4.41.65,5.38,5.81,5.38v3.55h-26.7v-3.55c4.95,0,5.6-.65,5.6-4.85v-25.84c0-7.86-2.8-10.98-7.97-10.98-3.55,0-6.25,1.51-9.47,5.06v31.44c0,4.63,1.08,5.17,5.92,5.17v3.55h-28.1v-3.55c6.14,0,6.89-.86,6.89-5.38v-31.87c0-3.23-.54-4.09-3.12-4.09h-3.55v-3.55l16.9-2.69h4.63v6.89h.22c4.09-4.09,9.58-7.54,17.34-7.54s12.81,3.77,14.75,8.51c3.55-5.49,9.48-8.51,17.34-8.51,10.01,0,16.26,5.06,16.26,16.9v25.95c0,4.52.75,5.38,6.46,5.38Z"/>
          <path class="cls-1" d="M242.11,172.88c0,18.52-9.91,27.89-26.16,27.89-7,0-11.74-2.05-16.58-4.52l-3.01,3.23h-5.28v-63.74c0-3.55-.54-4.31-3.66-4.31h-3.01v-3.66l17.23-2.58h4.74v27.89h.11c3.66-3.12,8.29-5.38,14.97-5.38,12.92,0,20.67,8.51,20.67,25.2ZM226.07,174.92c0-13.46-3.34-21.21-10.98-21.21-3.55,0-6.35,2.48-8.72,4.85v34.24c2.37,2.37,5.17,4.09,8.61,4.09,7.64,0,11.09-6.14,11.09-21.96Z"/>
          <path class="cls-1" d="M295.95,174.6h-32.19c.43,13.35,3.77,19.38,12.92,19.38,7.32,0,11.84-3.88,14.54-10.01l3.66,1.94c-2.91,6.78-7.75,14.75-22.93,14.75-15.94,0-24.23-8.83-24.23-26.38s8.61-26.6,24.55-26.6,23.69,9.8,23.69,25.95v.97ZM279.91,170.72c0-13.03-1.29-19.17-7.75-19.17-5.38,0-8.29,4.31-8.4,19.17h16.15Z"/>
          <path class="cls-1" d="M345.48,157.15c0,4.41-2.37,8.29-7.75,8.29-4.31,0-7.11-2.37-7.11-6.46,0-3.23,1.83-3.88,1.83-4.74,0-.43-.43-.86-1.18-.86-3.66,0-8.61,9.26-8.61,16.9h-.11v20.24c0,4.52,1.08,5.38,8.29,5.38v3.55h-30.47v-3.55c6.14,0,6.89-.86,6.89-5.38v-31.87c0-3.23-.54-4.09-3.12-4.09h-3.55v-3.55l16.9-2.69h4.63v9.91h.32c2.26-4.74,6.35-10.44,13.46-10.44,6.14,0,9.58,3.98,9.58,9.37Z"/>
        </g>
        <g>
          <path class="cls-1" d="M87.44,228.29h-.22v48.67c0,3.98,1.29,5.6,5.38,5.6h3.77v3.55h-21.53v-3.55h2.8c3.45,0,5.06-1.72,5.06-5.6v-52.22c0-5.28-.75-6.03-7.97-6.14v-3.55h23.58l33.38,51.57h.32v-42.85c0-3.45-1.83-5.17-5.49-5.17h-3.77v-3.55h21.32v3.55h-2.58c-3.34,0-4.95,1.72-4.95,5.17v63.1h-10.77l-38.33-58.57Z"/>
          <path class="cls-1" d="M143.86,260.91c0-18.09,8.72-26.7,26.92-26.7s26.38,8.4,26.38,26.49-8.51,26.59-26.59,26.59-26.7-8.4-26.7-26.38ZM181.12,260.7c-.11-15.61-3.12-22.61-10.66-22.61s-10.55,7.86-10.55,22.93,2.91,22.5,10.77,22.5,10.66-7.21,10.44-22.83Z"/>
          <path class="cls-1" d="M204.27,271.57v-32.19h-6.46v-3.55c8.51-1.51,15.61-9.91,18.2-19.38h3.55v19.06h10.55v3.88h-10.55v31.55c0,6.68,1.61,10.01,6.03,10.01,2.58,0,5.06-1.51,6.03-2.05l1.83,3.02c-2.8,1.94-6.89,5.49-14.97,5.49-9.04,0-14.21-4.41-14.21-15.83Z"/>
          <path class="cls-1" d="M280.93,261.24h-32.19c.43,13.35,3.77,19.38,12.92,19.38,7.32,0,11.84-3.88,14.54-10.01l3.66,1.94c-2.91,6.78-7.75,14.75-22.93,14.75-15.94,0-24.23-8.83-24.23-26.38s8.61-26.6,24.55-26.6,23.69,9.8,23.69,25.95v.97ZM264.89,257.36c0-13.03-1.29-19.17-7.75-19.17-5.38,0-8.29,4.31-8.4,19.17h16.15Z"/>
        </g>
      </g>
      <g>
        <g>
          <path class="cls-1" d="M68.17,49.51c-.81-.59-1.26-.67-2.24.06l-.52-.68,5.99-4.54.52.68-.83.63c-.58.44-.55.74.1,1.26l8.37,6.48.06-.05-4.4-11.44,2.07-1.57,9.79,7.23.06-.05-4-9.46c-.33-.83-.61-1.07-1.34-.52l-.91.69-.52-.68,4.02-3.05.52.68c-.97.74-1.09,1.28-.38,2.99l5.47,13.6-1.74,1.32-10.59-7.73-.04.03,4.6,12.27-1.66,1.26-12.42-9.41Z"/>
          <path class="cls-1" d="M107.58,40.15l.43.74-5.75,3.3-.43-.75c1.06-.61,1.06-.88.59-1.69l-3.11-5.41c-.94-1.65-1.91-1.96-2.99-1.34-.77.44-1.14,1.1-1.4,2.27l3.75,6.54c.5.88.78.99,1.86.37l.43.74-5.89,3.38-.43-.74c1.29-.74,1.34-1.01.8-1.96l-6.61-11.52c-.39-.68-.6-.79-1.15-.48l-.74.43-.43-.74,3.29-2.63.99-.57,3.58,6.25.05-.03c.37-1.23,1.06-2.65,2.71-3.59,2.01-1.15,3.9-.77,5.3,1.67l3.12,5.43c.53.92.8,1.04,2.02.34Z"/>
          <path class="cls-1" d="M103.22,25.74c-.49-1.03,0-2.3,1.03-2.79,1.06-.5,2.35-.08,2.84.95.49,1.03-.03,2.29-1.07,2.78-1.03.49-2.31.12-2.81-.94ZM108.51,39.83c1.34-.64,1.41-.9.94-1.89l-3.31-6.95c-.34-.7-.54-.84-1.11-.57l-.77.37-.37-.77,3.48-2.37,1.03-.49,4.38,9.21c.47.99.72,1.1,1.92.53l.37.77-6.2,2.95-.37-.78Z"/>
          <path class="cls-1" d="M117.66,36.17c-.34.13-.45.35-.52.6l-.58.23-1.79-3.85.77-.31c1.22,1.92,3.1,2.62,4.88,1.91,1.18-.47,1.96-1.4,1.47-2.63-.37-.92-1.09-1.11-2.72-1.07l-1.42.15c-2.59.11-3.86-.55-4.5-2.15-.9-2.25.2-4.31,2.88-5.39,1.57-.63,2.27-.35,2.87-.59.39-.16.37-.4.36-.65l.6-.24,1.58,3.46-.72.29c-1.14-1.51-2.64-2.11-4.13-1.51-1.18.47-1.7,1.41-1.37,2.26.39.97,1.6.98,2.62.94l1.25-.11c2.59-.17,4.06.42,4.8,2.25.92,2.29-.11,4.61-3.06,5.79-1.76.71-2.56.33-3.26.61Z"/>
          <path class="cls-1" d="M139.99,27.95l.25.82-6.24,1.9-.25-.82.35-.11c.3-.09.42-.21.37-.38-.05-.17-.41-.45-.81-.79l-3.38-2.78-.32.64.9,2.93c.31,1.02.48,1.21,1.72.83l.25.82-6.47,1.97-.25-.82c1.44-.44,1.53-.68,1.21-1.73l-3.87-12.68c-.24-.77-.42-.93-1.02-.75l-.82.25-.25-.82,3.81-1.84,1.07-.33,3.34,10.97,2.01-3.85c.76-1.51.49-2.05-.18-1.85l-.62.19-.25-.82,5.13-1.54.25.82-.2.06c-1.44.44-2.21,1.65-3.21,3.45l-.59,1.1,4.82,3.69c1.56,1.21,2.42,1.68,2.99,1.51l.25-.08Z"/>
          <path class="cls-1" d="M150.24,20.6l-7.61,1.62c.77,3.13,1.86,4.39,4.02,3.93,1.73-.37,2.6-1.51,2.93-3.09l.96.27c-.35,1.75-1.09,3.87-4.68,4.64-3.76.8-6.17-.87-7.05-5.02-.89-4.2.7-6.71,4.47-7.51,3.94-.84,6.09,1.13,6.9,4.94l.05.23ZM146.25,20.49c-.65-3.08-1.27-4.46-2.79-4.14-1.27.27-1.74,1.43-1.02,4.95l3.82-.81Z"/>
          <path class="cls-1" d="M163.6,12.58l.11.85c-.85.11-1.19.31-1.55,1.63l-2.7,10.03c-.89,3.18-1.17,5.99-3.8,6.32-1.42.18-2.71-.68-2.87-1.97-.12-.93.48-1.84,1.48-1.97.98-.12,1.66.47,1.77,1.35.09.72-.34.86-.3,1.19.03.23.23.36.51.33.59-.07,1.1-.84,1.55-2.71l.36-1.51-5.78-10.21c-.51-.91-.67-.99-1.91-.83l-.11-.85,6.86-.86.11.85-.8.1c-.41.05-.61.36-.3.95l3.1,5.96h.05s1.63-6.68,1.63-6.68c.1-.48-.12-.77-.56-.72l-.85.11-.11-.85,4.1-.51Z"/>
          <path class="cls-1" d="M184.27,23.67c-.85.56-1.83.86-3.11.88-1.38.02-2.14-.49-2.39-1.24-.87.72-2.01,1.31-3.65,1.33-2.26.04-3.6-.88-3.63-2.7-.04-2.37,2.74-4.05,7.1-4.93l-.03-1.95c-.05-1.43-.48-2.2-1.99-2.18-.83.01-1.5.31-1.5.7,0,.49.66.61.67,1.47.01.86-.65,1.65-1.77,1.67-1.14.02-1.81-.75-1.82-1.58-.02-1.48,1.59-3.25,5.72-3.32,2.96-.05,4.31,1.2,4.36,4.09l.09,5.72c.02,1.3.26,1.56.75,1.55.42,0,.65-.17.88-.27l.3.75ZM176.85,23.07c.68-.01,1.32-.39,1.83-.78l-.07-4.19c-2.43.69-3.48,1.67-3.46,3.2.02,1.27.58,1.79,1.69,1.77Z"/>
          <path class="cls-1" d="M199.44,24.79l-.08.85-6.6-.6.08-.85c1.19.11,1.36-.03,1.45-1.04l.56-6.21c.17-1.89-.46-2.7-1.65-2.81-.96-.09-1.65.32-2.5,1.03l-.68,7.54c-.1,1.11.15,1.27,1.31,1.37l-.08.85-6.76-.61.08-.85c1.48.13,1.68-.06,1.77-1.14l.7-7.67c.07-.78-.04-1-.66-1.05l-.85-.08.08-.85,4.12-.28,1.11.1-.16,1.71h.08c1.1-.86,2.47-1.65,4.39-1.47,2.3.21,3.64,1.61,3.39,4.41l-.57,6.24c-.1,1.06.06,1.31,1.46,1.44Z"/>
          <path class="cls-1" d="M213.85,27.53l-.16.84-4.93-.94.03-1.16c-1.27.71-2.57.97-4.02.69-3.07-.58-4.44-3.12-3.71-6.92.83-4.37,3.55-6.13,7.4-5.4.95.18,1.56.43,2.13.75l.13.02.62-3.24c.14-.74-.02-.98-.54-1.08l-.87-.17.16-.84,4.21.14,1.1.21-2.95,15.5c-.21,1.1.01,1.33.8,1.48l.59.11ZM208.9,25l1.56-8.22c-.46-.51-1.06-.99-1.87-1.15-1.86-.35-3.02,1.12-3.64,4.42-.67,3.55-.05,5.44,1.63,5.76.89.17,1.62-.3,2.32-.8Z"/>
          <path class="cls-1" d="M220.14,28.97l.49.18c1.15.41,1.41.15,1.76-.83l4.26-11.84c.43-1.2.32-1.43-1.31-2.05l.29-.81,5.65,2.03.32,12.55.05.02,8.19-9.48,5.41,1.95-.29.81c-1.62-.56-1.83-.44-2.26.76l-4.23,11.77c-.41,1.15-.32,1.43,1.27,2l-.29.81-7.12-2.56.29-.81c1.57.56,1.78.36,2.18-.76l4.08-11.33-.05-.02-9.7,11.37-1.22-.44-.38-14.83-.05-.02-4.05,11.25c-.39,1.08-.3,1.36.88,1.78l.73.26-.29.81-4.89-1.76.29-.81Z"/>
          <path class="cls-1" d="M253.93,43.3l-.39.77-4.6-2.32.75-1.49-.07-.04c-1.02.36-2.79.8-4.72-.17-2.07-1.04-2.76-2.79-1.5-5.27l2.79-5.52c.35-.7.33-.94-.23-1.22l-.77-.39.39-.77,3.96,1.33,1.04.53-3.75,7.43c-.88,1.74-.6,2.75.49,3.3.77.39,1.63.24,2.7-.09l3.29-6.52c.35-.7.33-.94-.23-1.22l-.77-.39.39-.77,3.96,1.33,1.04.53-4.72,9.35c-.4.79-.29.99.94,1.61Z"/>
          <path class="cls-1" d="M256.11,45.33c-.31-.19-.55-.16-.79-.06l-.53-.33,2.04-3.72.71.44c-.83,2.12-.28,4.05,1.35,5.07,1.08.67,2.29.75,2.99-.38.52-.84.25-1.53-.76-2.83l-.97-1.06c-1.62-2.02-1.84-3.44-.94-4.9,1.28-2.05,3.6-2.39,6.05-.87,1.44.89,1.63,1.62,2.18,1.96.35.22.54.06.73-.1l.55.34-1.85,3.32-.66-.41c.54-1.81.14-3.38-1.23-4.23-1.08-.67-2.15-.54-2.63.24-.55.88.15,1.87.79,2.67l.82.94c1.67,1.99,2.07,3.52,1.03,5.2-1.3,2.1-3.78,2.64-6.48.97-1.61-1-1.78-1.87-2.42-2.27Z"/>
          <path class="cls-1" d="M264.38,49.96c1.21.86,1.48.79,2.11-.1l4.46-6.27c.45-.64.47-.88-.04-1.24l-.7-.5.5-.7,3.77,1.88.93.66-5.9,8.31c-.63.89-.6,1.17.48,1.93l-.5.7-5.6-3.98.5-.7ZM274.11,38.47c.66-.93,2.01-1.12,2.94-.46.95.68,1.22,2.01.55,2.95s-2.02,1.09-2.95.42c-.93-.66-1.23-1.96-.55-2.91Z"/>
          <path class="cls-1" d="M274.32,50.76c2.76-3.38,6.01-3.55,8.98-1.13,2.46,2,2.71,4.12,1.62,5.45-.67.83-1.58,1.03-2.5.27-.81-.66-.97-1.53-.36-2.27.48-.58.95-.5,1.28-.91.36-.44.28-1.08-.55-1.75-1.19-.97-2.5-.84-4.95,2.16-2.56,3.14-2.69,4.82-1,6.2,1.57,1.28,2.91.83,4.15.26l.36.83c-1.67.98-3.67,1.67-6.35-.52-2.92-2.38-3.28-5.39-.67-8.6Z"/>
        </g>
        <path class="cls-1" d="M335.04,261.01l-1.77-.94c13.34-25.16,20.39-53.6,20.39-82.24C353.66,80.88,274.79,2,177.83,2S2,80.88,2,177.83c0,28.64,7.05,57.08,20.39,82.24l-1.77.94C7.13,235.56,0,206.8,0,177.83,0,79.78,79.77,0,177.83,0s177.83,79.78,177.83,177.83c0,28.96-7.13,57.72-20.62,83.17Z"/>
        <path class="cls-1" d="M43.72,119.17l-1.83-.8C65.54,64.36,118.9,29.47,177.83,29.47s112.29,34.89,135.95,88.89l-1.83.8c-23.34-53.27-75.98-87.69-134.12-87.69S67.05,65.89,43.72,119.17Z"/>
        <path class="cls-1" d="M177.83,326.19c-27.3,0-53.99-7.48-77.18-21.63l1.04-1.71c22.88,13.96,49.2,21.34,76.14,21.34s53.26-7.38,76.14-21.34l1.04,1.71c-23.19,14.15-49.88,21.63-77.18,21.63Z"/>
        <path class="cls-1" d="M177.83,355.66c-47.04,0-91.39-18.2-124.89-51.25l1.4-1.42c33.12,32.68,76.97,50.67,123.48,50.67s90.37-18,123.48-50.67l1.4,1.42c-33.49,33.05-77.85,51.25-124.89,51.25Z"/>
        <g>
          <path class="cls-1" d="M45.36,113.86c11.67-24.5,29.87-45.27,52.69-60.1,23.75-15.43,51.34-23.59,79.78-23.59s56.04,8.16,79.78,23.59c22.82,14.83,41.02,35.6,52.69,60.1H45.36ZM188.9,99.44c.8,1.5,2.69,3.29,7.17,3.29,3.73,0,6.73-.8,9.44-2.53l.48-.31-1.3-3.42-.68.3c-.12.06-.25.12-.38.18-.55.27-1.07.52-1.9.52-.69,0-1.41,0-1.41-3.83v-16.61c0-8.72-4.18-12.79-13.16-12.79-12.07,0-17.47,5.06-17.47,10.07,0,2.68,2.03,5.39,5.91,5.39s5.91-2.81,5.91-5.46c0-1.67-.75-2.57-1.3-3.23-.39-.46-.59-.72-.59-1.07,0-.44,1.26-1.26,3.67-1.26,3.58,0,4.88,1.5,4.96,5.73v5.07c-13.44,2.59-20.84,7.74-20.84,14.55,0,5.53,4.05,8.71,11.12,8.71,3.88,0,7.28-1.08,10.35-3.29ZM206.31,101.9h22.78v-3.9h-.7c-5.11,0-5.11-.65-5.11-3.07v-13.49l.08-.71c0-5.42,3.47-11.15,5.34-11.15h.02s-.06.07-.08.1c-.41.52-1.09,1.38-1.09,3.12,0,3.18,2.23,5.24,5.69,5.24,3.73,0,6.14-2.56,6.14-6.52,0-4.35-2.98-7.27-7.42-7.27-3.57,0-6.64,1.95-8.96,5.68v-5.3h-4.01l-12.5,1.99v3.8h3.2c1.17,0,1.48,0,1.48,2.16v22.35c0,2.6,0,3.07-4.13,3.07h-.7v3.9ZM118.36,101.9h25.02c13.49,0,20.33-4.73,20.33-14.07,0-7.03-3.73-11.6-11.11-13.61,5.9-1.96,8.99-5.85,8.99-11.38,0-8.08-6.41-12.18-19.05-12.18h-24.19v3.9h.7c4.65,0,4.81.36,4.81,3.67v36.24c0,2.91-.16,3.52-4.81,3.52h-.7v3.9ZM141.33,97.62c-3.6,0-4.58-.9-4.58-4.2v-16.58h3.22c6.65,0,10.32,3.93,10.32,11.07,0,6.54-2.93,9.71-8.96,9.71ZM183.61,96.79c-2.93,0-4.13-1.3-4.13-4.5,0-3.94,2.64-6.42,8.78-8.21v10.87c-1.7,1.22-3.27,1.84-4.66,1.84ZM136.75,72.48v-15.23c0-1.92,0-2.31,3.15-2.31,6.13,0,9.11,2.81,9.11,8.58s-3.09,8.96-9.19,8.96h-3.07Z"/>
          <path class="cls-1" d="M177.83,30.88c28.31,0,55.77,8.12,79.4,23.47,22.4,14.56,40.33,34.86,51.95,58.81H46.48c11.63-23.95,29.55-44.25,51.95-58.81,23.63-15.36,51.09-23.47,79.4-23.47M117.65,55.27h1.41q4.1,0,4.1,2.97v36.24c0,2.55,0,2.82-4.1,2.82h-1.41v5.31h25.72c13.96,0,21.04-4.97,21.04-14.77,0-6.75-3.25-11.33-9.68-13.68,6.13-2.74,7.56-7.48,7.56-11.31,0-8.55-6.65-12.89-19.76-12.89h-24.89v5.31M223.67,67.73v-3.81h-4.77l-.11.02-11.85,1.89-1.19.19v5.1h3.9c.39,0,.58.03.66.06.05.12.12.47.12,1.4v22.35q0,2.37-3.42,2.37h-1.25l-.14-.37-.53-1.39-1.36.61c-.13.06-.26.12-.4.19-.51.25-.92.45-1.59.45-.21,0-.29-.02-.3-.02,0,0,0,0,0,0-.05-.05-.4-.51-.4-3.1v-16.61c0-9.2-4.41-13.49-13.87-13.49-12.55,0-18.17,5.41-18.17,10.77,0,2.95,2.32,6.09,6.62,6.09,3.77,0,6.62-2.65,6.62-6.17,0-1.93-.88-2.98-1.46-3.68-.16-.19-.32-.38-.39-.51.33-.26,1.38-.66,2.93-.66,3.19,0,4.18,1.18,4.25,5.01v4.5c-13.45,2.7-20.84,8.05-20.84,15.13,0,5.98,4.31,9.41,11.83,9.41,3.78,0,7.11-.98,10.14-3,1.06,1.5,3.18,3,7.38,3,3.74,0,6.78-.78,9.53-2.46v1.63h24.19v-5.31h-1.41c-4.4,0-4.4-.22-4.4-2.37v-12.78h.08v-1.41c0-3.45,1.47-6.88,2.83-8.82-.04.27-.06.57-.06.89,0,3.61,2.51,5.94,6.39,5.94,4.16,0,6.85-2.84,6.85-7.22,0-4.77-3.27-7.98-8.13-7.98-3.19,0-5.99,1.43-8.25,4.19M139.9,55.65c5.73,0,8.41,2.5,8.41,7.88s-2.77,8.25-8.48,8.25h-2.37v-14.52c0-1.11.13-1.32.15-1.35.06-.06.41-.26,2.29-.26M139.98,77.54c6.2,0,9.61,3.68,9.61,10.37,0,6.15-2.62,9.01-8.25,9.01-3.39,0-3.88-.75-3.88-3.5v-15.88h2.52M187.56,85.03v9.55c-1.46,1-2.79,1.5-3.95,1.5-2.22,0-3.42-.61-3.42-3.8,0-2.43.92-5.16,7.37-7.25M177.83,29.47c-59.13,0-110.12,34.83-133.59,85.1h267.17c-23.47-50.26-74.45-85.1-133.59-85.1h0ZM119.06,101.2v-2.49c4.91,0,5.51-.83,5.51-4.23v-36.24c0-3.85-.6-4.38-5.51-4.38v-2.49h23.48c11.4,0,18.35,3.32,18.35,11.48,0,6.12-3.93,9.89-11.1,11.4v.08c8.68,1.51,13.21,5.89,13.21,13.51,0,9.36-7.1,13.36-19.63,13.36h-24.31ZM222.26,72.28h.23c1.59-3.32,4.45-7.32,9.44-7.32,4.3,0,6.72,2.79,6.72,6.57,0,3.1-1.66,5.81-5.44,5.81-3.02,0-4.98-1.66-4.98-4.53,0-2.26,1.28-2.72,1.28-3.32,0-.3-.3-.6-.83-.6-2.57,0-6.04,6.49-6.04,11.85h-.08v14.19c0,3.17.76,3.78,5.81,3.78v2.49h-21.37v-2.49c4.3,0,4.83-.6,4.83-3.78v-22.35c0-2.27-.38-2.87-2.19-2.87h-2.49v-2.49l11.85-1.89h3.25v6.95h0ZM175.61,79c-3.32,0-5.21-2.26-5.21-4.68,0-4.3,4.76-9.36,16.76-9.36,8.61,0,12.46,3.7,12.46,12.08v16.61c0,3.77.68,4.53,2.11,4.53,1.21,0,1.89-.45,2.57-.76l.83,2.19c-2.49,1.59-5.36,2.42-9.06,2.42-4,0-6.19-1.51-6.87-3.7-2.57,2.04-5.89,3.7-10.65,3.7-6.57,0-10.42-2.72-10.42-8,0-6.87,8.15-11.63,20.84-13.97v-5.66c-.08-4.15-1.28-6.42-5.66-6.42-2.42,0-4.38.83-4.38,1.96,0,1.43,1.89,1.81,1.89,4.3s-1.96,4.76-5.21,4.76h0ZM139.9,54.24c-3.32,0-3.85.53-3.85,3.02v15.93h3.77c6.49,0,9.89-3.4,9.89-9.66s-3.25-9.29-9.81-9.29h0ZM139.98,76.13h-3.93v17.29c0,3.7,1.28,4.91,5.28,4.91,6.42,0,9.66-3.55,9.66-10.42,0-7.47-4-11.78-11.02-11.78h0ZM188.97,83.15c-7.1,1.89-10.19,4.68-10.19,9.14,0,3.7,1.59,5.21,4.83,5.21,1.96,0,3.85-1.06,5.36-2.19v-12.16h0Z"/>
        </g>
      </g>
    </g>
  </g>
</svg>